<svg xmlns="http://www.w3.org/2000/svg" viewBox="0 0 20.5 20.5">
    <defs>
        <!--        <style>-->
        <!--            .cls-1,.cls-2{fill:none;stroke:#757575;stroke-width:0.5px;}.cls-1{stroke-miterlimit:10;}.cls-2{stroke-linecap:round;stroke-linejoin:round;}-->
        <!--        </style>-->
    </defs>
    <title>Asset 37</title>
    <g id="Layer_2" data-name="Layer 2">
        <g id="Layer_1-2" data-name="Layer 1">
            <path style="stroke-miterlimit:10;fill:none;stroke:#757575;stroke-width:0.5px;stroke-linecap:round;stroke-linejoin:round"
                  d="M16.65,17.93a6.16,6.16,0,0,0-3.6-2.88c-1.2-.4-.8-1.6-.8-2.77,1.6,1.57,2-.43,3.6.37-1.47-2.33-1.26-3.59-1.6-5.6a3.94,3.94,0,0,0-4-3.6,3.94,3.94,0,0,0-4,3.6c-.34,2-.13,3.27-1.6,5.6,1.6-.8,2,1.2,3.6-.37,0,1.17.4,2.37-.8,2.77a6.16,6.16,0,0,0-3.6,2.88"/>
            <circle style="fill:none;stroke:#757575;stroke-width:0.5px;stroke-linecap:round;stroke-linejoin:round;"
                    cx="10.25" cy="10.25" r="10"/>
        </g>
    </g>
</svg>