<svg xmlns="http://www.w3.org/2000/svg" viewBox="0 0 31 31">
    <defs>
<!--        <style>.cls-1{fill:none;stroke:#d40057;stroke-miterlimit:10;}.cls-2{fill:#d40057;}.cls-3{fill:#fff;}</style>-->
    </defs>
    <title>Asset 52</title>
    <g id="Layer_2" data-name="Layer 2">
        <g id="Layer_1-2" data-name="Layer 1">
            <circle style="fill:none;stroke:#d40057;stroke-miterlimit:10;" cx="15.5" cy="15.5" r="15"/>
            <path style="fill:#d40057;"
                  d="M22,13.67a2,2,0,0,0-.41,3.88v2a3.61,3.61,0,0,1-7.21,0v-1a3.19,3.19,0,0,0,2.49-1.77l1.75-3.5A3.2,3.2,0,0,0,17.38,9a.41.41,0,0,0-.57.13.42.42,0,0,0,.14.58,2.38,2.38,0,0,1,.89,3.12l-1.42,2.84h-5L10,12.85a2.38,2.38,0,0,1,.9-3.12.43.43,0,0,0,.13-.58A.42.42,0,0,0,10.48,9a3.21,3.21,0,0,0-1.21,4.2L11,16.72a3.24,3.24,0,0,0,2.48,1.77v1a4.45,4.45,0,0,0,8.89,0v-2A2,2,0,0,0,22,13.67ZM11.88,16.53H16a2.4,2.4,0,0,1-4.11,0ZM22,16.76a1.13,1.13,0,1,1,1.13-1.13A1.13,1.13,0,0,1,22,16.76Z"/>
            <path style="fill:#fff;" d="M22,15.21H22a.42.42,0,0,0,0,.84H22a.42.42,0,0,0,0-.84Z"/>
        </g>
    </g>
</svg>