<svg xmlns="http://www.w3.org/2000/svg" viewBox="0 0 12.01 12">
    <defs>
<!--        <style>.cls-1{opacity:0.39;}.cls-2{fill:#757575;}</style>-->
    </defs>
    <title>Asset 57</title>
    <g id="Layer_2" data-name="Layer 2">
        <g id="Layer_1-2" data-name="Layer 1">
            <g style="opacity:0.39;">
                <path style="fill:#757575;"
                      d="M10.44,3.77a1.57,1.57,0,0,0-.34,3.1V8.45a2.88,2.88,0,0,1-5.76,0V7.63a2.58,2.58,0,0,0,2-1.42l1.4-2.8a2.57,2.57,0,0,0-1-3.36.32.32,0,0,0-.45.11.33.33,0,0,0,.11.46,1.92,1.92,0,0,1,.71,2.5L6,5.39H2L.87,3.12A1.92,1.92,0,0,1,1.59.62.33.33,0,0,0,1.7.16.33.33,0,0,0,1.24.05a2.57,2.57,0,0,0-1,3.36l1.4,2.8a2.58,2.58,0,0,0,2,1.42v.82a3.55,3.55,0,0,0,7.1,0V6.87a1.57,1.57,0,0,0-.33-3.1ZM2.36,6.06H5.65a1.92,1.92,0,0,1-3.29,0Zm8.08.18a.9.9,0,1,1,.9-.9A.9.9,0,0,1,10.44,6.24Z"/>
                <path class="cls-2" d="M10.46,5h0a.33.33,0,0,0-.34.33.34.34,0,0,0,.34.33h0a.33.33,0,0,0,0-.66Z"/>
            </g>
        </g>
    </g>
</svg>