<svg xmlns="http://www.w3.org/2000/svg" viewBox="0 0 30.5 30.5"><defs><style>.cls-1,.cls-2{fill:none;stroke:#757575;stroke-width:0.5px;}.cls-1{stroke-miterlimit:10;}.cls-2{stroke-linecap:round;stroke-linejoin:round;}</style></defs><title>Asset 54</title><g id="Layer_2" data-name="Layer 2"><g id="Layer_1-2" data-name="Layer 1"><path class="cls-1" d="M24.85,26.78a9.21,9.21,0,0,0-5.4-4.33c-1.8-.6-1.2-2.4-1.2-4.15,2.4,2.35,3-.65,5.4.55-2.2-3.5-1.9-5.38-2.4-8.4-.35-2.1-1.76-5.4-6-5.4s-5.65,3.3-6,5.4c-.5,3-.2,4.9-2.4,8.4,2.4-1.2,3,1.8,5.4-.55,0,1.75.6,3.55-1.2,4.15a9.21,9.21,0,0,0-5.4,4.33"/><circle class="cls-2" cx="15.25" cy="15.25" r="15"/></g></g></svg>