<svg xmlns="http://www.w3.org/2000/svg" viewBox="0 0 31 31">
    <defs>
<!--        <style>.cls-1{fill:none;stroke:#d40057;stroke-miterlimit:10;}</style>-->
    </defs>
    <title>basic_details</title>
    <g id="Layer_2" data-name="Layer 2">
        <g id="Layer_1-2" data-name="Layer 1">
            <path style="fill:none;stroke:#d40057;stroke-miterlimit:10;"
                  d="M25.09,27A9.18,9.18,0,0,0,19.7,22.7c-1.8-.6-1.2-2.4-1.2-4.15,2.4,2.35,3-.65,5.4.55-2.2-3.5-1.9-5.38-2.4-8.4-.35-2.1-1.76-5.4-6-5.4s-5.65,3.3-6,5.4c-.5,3-.2,4.9-2.4,8.4,2.4-1.2,3,1.8,5.4-.55,0,1.75.6,3.55-1.2,4.15A9.2,9.2,0,0,0,5.9,27"/>
            <circle style="fill:none;stroke:#d40057;stroke-miterlimit:10;" cx="15.5" cy="15.5" r="15"/>
        </g>
    </g>
</svg>