<svg xmlns="http://www.w3.org/2000/svg" viewBox="0 0 28.47 35.36"><defs><style>.cls-1{fill:#fff;}.cls-2{fill:#f8bbd0;}.cls-3{fill:#d40057;}</style></defs><title>Asset 66</title><g id="Layer_2" data-name="Layer 2"><g id="Layer_1-2" data-name="Layer 1"><path class="cls-1" d="M25.62,33.39a.87.87,0,0,0,.87-.87V11.05H20.87a1,1,0,0,1-1-1V2h-17A.87.87,0,0,0,2,2.83V32.51a.87.87,0,0,0,.87.87H25.62Z"/><path class="cls-2" d="M20.64,2a1.13,1.13,0,0,0-.93-.48H3.26A1.16,1.16,0,0,0,2.1,2.65V32.7a1.16,1.16,0,0,0,1.16,1.16H25.2a1.15,1.15,0,0,0,1.16-1.16V10.23"/><path class="cls-3" d="M21.8,30.19H6.6a1,1,0,0,1,0-2H21.8a1,1,0,0,1,0,2Z"/><path class="cls-3" d="M21.8,25.8H6.6a1,1,0,1,1,0-2H21.8a1,1,0,0,1,0,2Z"/><path class="cls-3" d="M11.2,21.43H6.6a1,1,0,0,1,0-2h4.6a1,1,0,0,1,1,1A1,1,0,0,1,11.2,21.43Z"/><path class="cls-3" d="M11.2,17H6.6a1,1,0,1,1,0-2h4.6a1,1,0,1,1,0,2Z"/><path class="cls-3" d="M11.84,7.79H10.2V6.15a1,1,0,1,0-2,0V7.79H6.59a1,1,0,0,0-1,1,1,1,0,0,0,1,1H8.24V11.4a1,1,0,1,0,2,0V9.76h1.64a1,1,0,1,0,0-2Z"/><path class="cls-3" d="M27.92,9l-5.7-7.83A2.85,2.85,0,0,0,19.93,0H2.84A2.84,2.84,0,0,0,0,2.84V32.52a2.84,2.84,0,0,0,2.84,2.84H25.63a2.84,2.84,0,0,0,2.84-2.84V10.67A2.93,2.93,0,0,0,27.92,9ZM21.86,4l3.69,5.09H21.86ZM26.5,32.51a.87.87,0,0,1-.87.87H2.84A.87.87,0,0,1,2,32.51V2.85A.87.87,0,0,1,2.84,2H19.89v8.1a1,1,0,0,0,1,1H26.5V32.51Z"/><polygon class="cls-1" points="21.86 9.09 25.55 9.09 21.86 4 21.86 9.09"/><path class="cls-1" d="M21,16.26a1,1,0,0,0-1-1A1,1,0,0,0,19,16a1,1,0,0,1-1.92,0,1,1,0,0,0-2,.23c0,1.29,1.6,3.24,2.92,4.5C19.38,19.5,21,17.54,21,16.26Z"/><path class="cls-3" d="M20,13.31a2.94,2.94,0,0,0-1.93.71,3,3,0,0,0-4.89,2.25c0,2.89,3.81,6.2,4.25,6.58a1,1,0,0,0,1.28,0c.43-.37,4.24-3.69,4.24-6.58A3,3,0,0,0,20,13.31Zm-4.86,3a1,1,0,0,1,2-.23A1,1,0,0,0,19,16a1,1,0,0,1,2,.23c0,1.28-1.6,3.24-2.92,4.5C16.73,19.5,15.13,17.55,15.13,16.26Z"/></g></g></svg>