<svg xmlns="http://www.w3.org/2000/svg" viewBox="0 0 18 18"><defs><style>.cls-1{fill:#fff;}</style></defs><title>Asset 56</title><g id="Layer_2" data-name="Layer 2"><g id="Layer_1-2" data-name="Layer 1"><path class="cls-1" d="M14.85,3H14V2.15a.51.51,0,0,0-1,0V3H12.2a.5.5,0,0,0-.5.5.51.51,0,0,0,.5.5H13V4.8a.51.51,0,0,0,1,0V4h.82a.5.5,0,0,0,0-1Z"/><path class="cls-1" d="M16.32,0H10.73A1.68,1.68,0,0,0,9.05,1.68V5.27a1.67,1.67,0,0,0,1.18,1.6V8.81a.5.5,0,0,0,.84.36L13.46,7h2.86A1.69,1.69,0,0,0,18,5.26V1.68A1.68,1.68,0,0,0,16.32,0ZM17,5.27a.68.68,0,0,1-.68.68H13.27a.51.51,0,0,0-.34.13l-1.7,1.58V6.45a.5.5,0,0,0-.5-.5.68.68,0,0,1-.68-.69V1.68A.67.67,0,0,1,10.73,1h5.59a.68.68,0,0,1,.69.68V5.27Z"/><path class="cls-1" d="M11.34,11.63a1.58,1.58,0,0,0-2.19-.53L7.61,12a.41.41,0,0,1-.23.05,3.47,3.47,0,0,1-2.27-1.9,5,5,0,0,1-.75-2.09c0-.49,0-.87.26-1l1.53-.93A1.6,1.6,0,0,0,6.68,4L4.73.76A1.61,1.61,0,0,0,2.54.23L1.66.77c-2.47,1.5-2.15,6.36.72,11.07C4.62,15.52,7.79,18,10.26,18h0a3.11,3.11,0,0,0,1.62-.43l.88-.54a1.58,1.58,0,0,0,.54-2.19Zm.9,4.55-.88.53a2.07,2.07,0,0,1-1.1.29h0c-2.1,0-5-2.34-7-5.68A15.93,15.93,0,0,1,1.16,6.11L1,5.1c0-.19,0-.38,0-.56l.07-1a2.65,2.65,0,0,1,1.1-1.91l.88-.53a.61.61,0,0,1,.83.2L5.84,4.5a.6.6,0,0,1-.2.82l-1.53.93a1.93,1.93,0,0,0-.74,1.93,6.13,6.13,0,0,0,.89,2.52c.89,1.45,2.12,2.38,3.13,2.38a1.36,1.36,0,0,0,.75-.2L9.68,12a.62.62,0,0,1,.82.2l1.95,3.21A.61.61,0,0,1,12.24,16.18Z"/></g></g></svg>