<svg xmlns="http://www.w3.org/2000/svg" viewBox="0 0 60 60">
    <defs>
<!--        <style>.cls-1{fill:#d40057;}.cls-2{fill:#fff;}</style>-->
    </defs>
    <title>Asset 40</title>
    <g id="Layer_2" data-name="Layer 2">
        <g id="Layer_1-2" data-name="Layer 1">
            <circle style="fill:#d40057;" cx="30" cy="30" r="30"/>
            <path style="fill:#fff;"
                  d="M40.59,24.67a3.75,3.75,0,0,0-.79,7.42v3.76a6.89,6.89,0,0,1-13.78,0v-2a6.18,6.18,0,0,0,4.76-3.39l3.35-6.69a6.16,6.16,0,0,0-2.31-8,.81.81,0,0,0-1.1.26.8.8,0,0,0,.27,1.1,4.57,4.57,0,0,1,1.71,6L30,28.55H20.46l-2.72-5.44a4.57,4.57,0,0,1,1.71-6,.8.8,0,1,0-.83-1.36,6.14,6.14,0,0,0-2.3,8l3.35,6.69a6.16,6.16,0,0,0,4.75,3.38v2a8.49,8.49,0,0,0,17,0V32.09a3.75,3.75,0,0,0-.81-7.42Zm-19.3,5.47h7.86a4.59,4.59,0,0,1-7.86,0Zm19.3.44a2.16,2.16,0,1,1,2.16-2.16A2.16,2.16,0,0,1,40.59,30.58Z"/>
            <path style="fill:#fff;" d="M40.65,27.63h-.1a.79.79,0,0,0-.8.79.8.8,0,0,0,.8.8h.1a.8.8,0,1,0,0-1.59Z"/>
        </g>
    </g>
</svg>