<svg xmlns="http://www.w3.org/2000/svg" viewBox="0 0 19.97 23.49"><defs><style>.cls-1{fill:#fff;}.cls-2{fill:#212121;}</style></defs><title>Asset 9</title><g id="Layer_2" data-name="Layer 2"><g id="Layer_1-2" data-name="Layer 1"><path class="cls-1" d="M5.8,19.13a.62.62,0,1,0-.62-.61A.62.62,0,0,0,5.8,19.13Z"/><path class="cls-2" d="M10,11.13A5.57,5.57,0,1,0,4.42,5.57,5.57,5.57,0,0,0,10,11.13ZM10,1.3A4.26,4.26,0,1,1,5.72,5.56,4.27,4.27,0,0,1,10,1.3Z"/><path class="cls-2" d="M15.52,12.77H12.33a.67.67,0,0,0-.58.35L10,16.45,8.21,13.12a.65.65,0,0,0-.57-.35H4.44A4.45,4.45,0,0,0,0,17.21v5.63a.65.65,0,0,0,.65.65H19.31a.66.66,0,0,0,.66-.65V17.21A4.46,4.46,0,0,0,15.52,12.77Zm3.14,9.42H1.31v-5a3.14,3.14,0,0,1,1.92-2.89,10.21,10.21,0,0,0,1.13,2.94,1.86,1.86,0,0,0-.48,1.26A1.92,1.92,0,1,0,5.8,16.6l-.31,0a8.86,8.86,0,0,1-1-2.54H7.25l2.16,4.07a.65.65,0,0,0,1.15,0l2.16-4.07h2.8l.42,0a10.68,10.68,0,0,1-.67,1.54c-1.25-.13-2.74,1-3.73,2.89a.76.76,0,0,0-.06.42l.15.86a.65.65,0,1,0,1.28-.23L12.8,19c.87-1.55,2-2.21,2.49-2,.24.12.38.51.38,1a5.12,5.12,0,0,1-.54,2.13l-.59.28a.64.64,0,0,0-.31.87.67.67,0,0,0,.87.32l.79-.38a.7.7,0,0,0,.3-.29A6.66,6.66,0,0,0,17,18a2.7,2.7,0,0,0-.55-1.77,11.32,11.32,0,0,0,.75-1.69,3.11,3.11,0,0,1,1.48,2.65v5h0ZM5.18,18.52a.62.62,0,1,1,.62.61A.61.61,0,0,1,5.18,18.52Z"/></g></g></svg>