<svg xmlns="http://www.w3.org/2000/svg" viewBox="0 0 12 12.86">
    <defs>
        <style>.cls-1{fill:#bdbdbd;}</style>
    </defs>
    <title>datepicker_icon</title>
    <g id="Layer_2" data-name="Layer 2">
        <g id="Layer_1-2" data-name="Layer 1">
            <path class="fill:#bdbdbd;"
                  d="M11.79.86H10.28V.21A.21.21,0,0,0,10.07,0H8.57a.21.21,0,0,0-.21.21V.86H3.64V.21A.21.21,0,0,0,3.43,0H1.93a.22.22,0,0,0-.22.21V.86H.21A.21.21,0,0,0,0,1.07V12.64a.22.22,0,0,0,.21.22H11.79a.22.22,0,0,0,.21-.22V1.07a.21.21,0,0,0-.21-.21Zm-3-.43H9.86V1.71H8.79ZM2.14.43H3.21V1.71H2.14ZM.43,1.29H1.71v.64a.21.21,0,0,0,.22.21h1.5a.21.21,0,0,0,.21-.21V1.29H8.36v.64a.21.21,0,0,0,.21.21h1.5a.21.21,0,0,0,.21-.21V1.29h1.29V3.21H.43Zm0,11.14V3.64H11.57v8.79Z"/>
            <path class="fill:#bdbdbd;"
                  d="M7.71,4.93H1.93v6.21h8.14V4.93Zm-1.5.43h1.5v1.5H6.21Zm1.5,3.43H6.21V7.29h1.5ZM4.29,7.29h1.5v1.5H4.29Zm0-1.93h1.5v1.5H4.29Zm-1.93,0h1.5v1.5H2.36Zm0,1.93h1.5v1.5H2.36Zm1.5,3.42H2.36V9.21h1.5Zm1.93,0H4.29V9.21h1.5Zm1.92,0H6.21V9.21h1.5Zm1.93,0H8.14V9.21h1.5Zm0-1.92H8.14V7.29h1.5Zm0-3.43v1.5H8.14V5.36Z"/>
        </g>
    </g>
</svg>