<svg xmlns="http://www.w3.org/2000/svg" viewBox="0 0 12.14 12.15"><defs><style>.cls-1{fill:#212121;}</style></defs><title>Asset 20</title><g id="Layer_2" data-name="Layer 2"><g id="Layer_1-2" data-name="Layer 1"><path class="cls-1" d="M9.8,2.55H2.35a.34.34,0,1,1,0-.68H9.8a.34.34,0,0,1,0,.68Z"/><path class="cls-1" d="M9.8,4H2.35A.34.34,0,0,1,2,3.63a.34.34,0,0,1,.34-.34H9.8A.34.34,0,0,1,9.8,4Z"/><path class="cls-1" d="M5.4,5.4H2.35a.34.34,0,0,1,0-.68H5.4a.34.34,0,0,1,.34.34A.35.35,0,0,1,5.4,5.4Z"/><path class="cls-1" d="M11.17,0H1A1,1,0,0,0,0,1V6.05a1,1,0,0,0,.4.81L2.51,8.44a1,1,0,0,0,.61.21H6a2.64,2.64,0,0,0,.81.75v2.41a.33.33,0,0,0,.56.24l.76-.72.76.72a.33.33,0,0,0,.56-.24V9.4a2.64,2.64,0,0,0,.81-.75h.92a1,1,0,0,0,1-1V1A1,1,0,0,0,11.17,0ZM2.56,7.63l-1.21-.9H2.56ZM8.77,11l-.42-.4a.34.34,0,0,0-.46,0l-.42.4V9.68a2.39,2.39,0,0,0,1.3,0V11ZM8.12,9.09A1.92,1.92,0,1,1,10,7.18,1.92,1.92,0,0,1,8.12,9.09Zm3.35-1.42a.29.29,0,0,1-.3.3h-.58A2.59,2.59,0,1,0,5.65,8H3.23V6.39a.34.34,0,0,0-.34-.34H.67V1A.31.31,0,0,1,1,.67h10.2a.31.31,0,0,1,.3.3v6.7Z"/></g></g></svg>