<svg xmlns="http://www.w3.org/2000/svg" viewBox="0 0 21.13 24.86"><defs><style>.cls-1{fill:none;}.cls-2{fill:#fff;}.cls-3{fill:#212121;}</style></defs><title>Asset 21</title><g id="Layer_2" data-name="Layer 2"><g id="Layer_1-2" data-name="Layer 1"><path class="cls-1" d="M3.41,15.16a3.32,3.32,0,0,0-2,3.06v5.26H19.75V18.22a3.33,3.33,0,0,0-1.57-2.82,11.91,11.91,0,0,1-.79,1.8A2.83,2.83,0,0,1,18,19.07a6.87,6.87,0,0,1-.83,3.11.67.67,0,0,1-.32.3l-.83.4a.7.7,0,0,1-.92-.34.69.69,0,0,1,.33-.92l.62-.29a5.34,5.34,0,0,0,.57-2.26c0-.56-.15-1-.39-1.1-.49-.25-1.73.45-2.64,2.08l.12.68a.69.69,0,0,1-1.36.25l-.16-.91a.78.78,0,0,1,.07-.45c1-2,2.63-3.2,3.94-3.06a10.73,10.73,0,0,0,.71-1.62,3.27,3.27,0,0,0-.45,0h-3l-2.28,4.31a.69.69,0,0,1-1.22,0L7.68,14.9H4.78a9.26,9.26,0,0,0,1,2.69,3.16,3.16,0,0,1,.32,0,2,2,0,1,1-1.53.7A10.52,10.52,0,0,1,3.41,15.16Z"/><path class="cls-2" d="M6.13,20.25a.66.66,0,0,0,0-1.31.66.66,0,0,0-.65.66A.66.66,0,0,0,6.13,20.25Z"/><path class="cls-3" d="M10.56,11.78A5.89,5.89,0,1,0,4.68,5.89,5.89,5.89,0,0,0,10.56,11.78Zm0-10.4a4.51,4.51,0,1,1-4.5,4.51A4.51,4.51,0,0,1,10.56,1.38Z"/><path class="cls-3" d="M16.43,13.52H13a.7.7,0,0,0-.61.36l-1.87,3.53L8.69,13.88a.69.69,0,0,0-.61-.36H4.7A4.7,4.7,0,0,0,0,18.22v6a.69.69,0,0,0,.69.69H20.44a.69.69,0,0,0,.69-.69v-6A4.71,4.71,0,0,0,16.43,13.52Zm3.31,10H1.38V18.22a3.33,3.33,0,0,1,2-3.06,10.84,10.84,0,0,0,1.2,3.1,2,2,0,1,0,1.53-.7,1.84,1.84,0,0,0-.33,0,9.48,9.48,0,0,1-1-2.69h2.9L10,19.21a.69.69,0,0,0,1.22,0l2.29-4.31h3a3.42,3.42,0,0,1,.45,0,11.84,11.84,0,0,1-.71,1.62c-1.32-.13-2.9,1.05-3.94,3.06a.71.71,0,0,0-.07.45l.16.91a.69.69,0,0,0,1.36-.25l-.12-.68c.92-1.63,2.15-2.33,2.64-2.08.24.13.39.54.39,1.1A5.5,5.5,0,0,1,16,21.33l-.62.29a.68.68,0,0,0-.33.92.71.71,0,0,0,.92.34l.83-.4a.67.67,0,0,0,.32-.3A7,7,0,0,0,18,19.07a2.9,2.9,0,0,0-.58-1.87,11.91,11.91,0,0,0,.79-1.8,3.33,3.33,0,0,1,1.57,2.82v5.26ZM5.48,19.6a.66.66,0,0,1,.65-.66.66.66,0,1,1-.65.66Z"/></g></g></svg>