<svg xmlns="http://www.w3.org/2000/svg" viewBox="0 0 13.43 18.8">
    <defs>
<!--        <style>.cls-1{fill:none;}.cls-2{fill:#fff;}.cls-3{fill:#212121;}</style>-->
    </defs>
    <title>experts</title>
    <g id="Layer_2" data-name="Layer 2">
        <g id="Layer_1-2" data-name="Layer 1">
            <path style="fill:none;"
                  d="M2.17,12.63A2.11,2.11,0,0,0,.88,14.57v3.35H12.55V14.57a2.09,2.09,0,0,0-1-1.78,7.75,7.75,0,0,1-.5,1.14,1.8,1.8,0,0,1,.37,1.19,4.45,4.45,0,0,1-.53,2,.37.37,0,0,1-.2.19l-.53.25a.45.45,0,0,1-.59-.21.44.44,0,0,1,.21-.58l.4-.19a3.39,3.39,0,0,0,.36-1.43c0-.36-.09-.62-.25-.7s-1.09.28-1.67,1.32l.07.43a.43.43,0,0,1-.35.51.44.44,0,0,1-.51-.35l-.1-.58a.39.39,0,0,1,0-.28c.66-1.28,1.67-2,2.51-2a7.44,7.44,0,0,0,.45-1l-.29,0H8.56L7.11,15.2a.44.44,0,0,1-.78,0L4.88,12.47H3a6.08,6.08,0,0,0,.66,1.71l.21,0a1.29,1.29,0,1,1-1,.44A6.36,6.36,0,0,1,2.17,12.63Z"/>
            <path style="fill:#fff;" d="M3.9,15.86a.41.41,0,1,0-.42-.41A.41.41,0,0,0,3.9,15.86Z"/>
            <path style="fill:#212121;"
                  d="M6.71,7.48A3.74,3.74,0,1,0,3,3.74,3.73,3.73,0,0,0,6.71,7.48Zm0-6.6A2.86,2.86,0,1,1,3.85,3.74,2.87,2.87,0,0,1,6.71.88Z"/>
            <path style="fill:#212121;"
                  d="M10.44,11.59H8.29a.45.45,0,0,0-.39.23L6.71,14.06,5.52,11.82a.43.43,0,0,0-.38-.23H3a3,3,0,0,0-3,3v3.79a.44.44,0,0,0,.44.44H13a.44.44,0,0,0,.44-.44V14.57A3,3,0,0,0,10.44,11.59Zm2.1,6.33H.88V14.57a2.12,2.12,0,0,1,1.29-1.94,6.54,6.54,0,0,0,.76,2,1.28,1.28,0,0,0-.32.85A1.29,1.29,0,1,0,3.9,14.16l-.21,0A6.08,6.08,0,0,1,3,12.47H4.87L6.32,15.2a.44.44,0,0,0,.78,0l1.45-2.73h1.88l.29,0a7.44,7.44,0,0,1-.45,1c-.84-.08-1.85.67-2.51,2a.44.44,0,0,0,0,.28l.1.58a.44.44,0,0,0,.51.35.43.43,0,0,0,.35-.51l-.07-.43c.58-1,1.37-1.48,1.67-1.32s.25.34.26.7a3.41,3.41,0,0,1-.37,1.43l-.39.19a.43.43,0,0,0-.21.58.43.43,0,0,0,.58.21l.53-.25a.41.41,0,0,0,.2-.19,4.45,4.45,0,0,0,.53-2A1.8,1.8,0,0,0,11,13.93a6.82,6.82,0,0,0,.5-1.14,2.09,2.09,0,0,1,1,1.78v3.35ZM3.48,15.45a.42.42,0,1,1,.42.41A.41.41,0,0,1,3.48,15.45Z"/>
        </g>
    </g>
</svg>