<svg xmlns="http://www.w3.org/2000/svg" viewBox="0 0 14.07 13.98"><defs><style>.cls-1{fill:#212121;}</style></defs><title>expert_consul</title><g id="Layer_2" data-name="Layer 2"><g id="Layer_1-2" data-name="Layer 1"><path class="cls-1" d="M8.3,5.79H7.43V4.92a.4.4,0,0,0-.79,0v.87H5.77a.39.39,0,0,0-.39.39.4.4,0,0,0,.39.39h.87v.87a.4.4,0,0,0,.4.39.39.39,0,0,0,.39-.39V6.57H8.3a.39.39,0,0,0,0-.78Z"/><path class="cls-1" d="M12.51,2.55h-3V1.17A1.18,1.18,0,0,0,8.32,0H5.75A1.18,1.18,0,0,0,4.58,1.17V2.55h-3A1.56,1.56,0,0,0,0,4.11v8.31A1.56,1.56,0,0,0,1.56,14h11a1.56,1.56,0,0,0,1.56-1.56V4.11A1.56,1.56,0,0,0,12.51,2.55ZM5.36,1.17A.4.4,0,0,1,5.75.78H8.32a.38.38,0,0,1,.39.39V2.55H5.36Zm7.15,12H1.56a.78.78,0,0,1-.78-.78V8.78a11.47,11.47,0,0,0,2.33.94V11a.4.4,0,0,0,.39.39A.39.39,0,0,0,3.9,11V9.92A15.19,15.19,0,0,0,7,10.25a14.67,14.67,0,0,0,3.14-.33V11a.39.39,0,0,0,.39.39A.38.38,0,0,0,11,11V9.72a11.24,11.24,0,0,0,2.33-.94v3.64h0A.78.78,0,0,1,12.51,13.2ZM7,9.47A12.1,12.1,0,0,1,.78,7.88V4.11a.78.78,0,0,1,.78-.78h11a.78.78,0,0,1,.78.78V7.88h0A12.08,12.08,0,0,1,7,9.47Z"/></g></g></svg>