<svg xmlns="http://www.w3.org/2000/svg" viewBox="0 0 12 12">
    <defs>
<!--        <style>.cls-1{fill:#212121;}</style>-->
    </defs>
    <title>Asset 5</title>
    <g id="Layer_2" data-name="Layer 2">
        <g id="Layer_1-2" data-name="Layer 1">
            <path style="fill:#212121;"
                  d="M7.08,5H6.34V4.22A.34.34,0,0,0,6,3.88a.34.34,0,0,0-.33.34V5H4.93a.34.34,0,1,0,0,.67h.74v.74a.34.34,0,1,0,.67,0V5.64h.74a.34.34,0,0,0,0-.67Z"/>
            <path style="fill:#212121;"
                  d="M10.67,2.19H8.09V1a1,1,0,0,0-1-1H4.91a1,1,0,0,0-1,1V2.19H1.33A1.34,1.34,0,0,0,0,3.53v7.13A1.34,1.34,0,0,0,1.33,12h9.34A1.34,1.34,0,0,0,12,10.66V3.53A1.33,1.33,0,0,0,10.67,2.19ZM4.57,1A.34.34,0,0,1,4.91.67H7.1A.34.34,0,0,1,7.43,1V2.19H4.57Zm6.1,10.32H1.33a.66.66,0,0,1-.66-.67V7.54a9.43,9.43,0,0,0,2,.8V9.45a.34.34,0,0,0,.67,0V8.51A12.37,12.37,0,0,0,6,8.8a12.3,12.3,0,0,0,2.68-.29v.94a.34.34,0,0,0,.67,0V8.34a9.43,9.43,0,0,0,2-.8v3.12h0A.67.67,0,0,1,10.67,11.33ZM6,8.13A10.27,10.27,0,0,1,.67,6.76V3.53a.67.67,0,0,1,.66-.67h9.34a.66.66,0,0,1,.66.67V6.76h0A10.33,10.33,0,0,1,6,8.13Z"/>
        </g>
    </g>
</svg>