<svg xmlns="http://www.w3.org/2000/svg" viewBox="0 0 26.11 20"><defs><style>.cls-1{fill:#d40057;}.cls-2{fill:#f8bbd0;}</style></defs><title>Asset 2</title><g id="Layer_2" data-name="Layer 2"><g id="Layer_1-2" data-name="Layer 1"><path class="cls-1" d="M5.39,12.16c1.19,0,2.17-1.44,2.33-3.42a.47.47,0,0,0-.21-.41A3.2,3.2,0,0,1,6.16,6.65a.43.43,0,0,0-.37-.32.44.44,0,0,0-.44.22,3.24,3.24,0,0,1-1.94,1.2A.44.44,0,0,0,3,8.18C3,10.41,4.07,12.16,5.39,12.16Zm.24-4.58a4.42,4.42,0,0,0,1.2,1.34c-.17,1.33-.79,2.37-1.44,2.37S4,10.17,3.92,8.53A4.79,4.79,0,0,0,5.63,7.58Z"/><path class="cls-2" d="M5.63,7.58a4.79,4.79,0,0,1-1.71.95c.09,1.64.82,2.76,1.47,2.76s1.27-1,1.44-2.37A4.42,4.42,0,0,1,5.63,7.58Z"/><path class="cls-1" d="M9.85,13.46,9.29,7.77a4,4,0,0,0-4-3.63,4,4,0,0,0-4,3.63L.71,13.63A2.33,2.33,0,0,0,0,15.3v4.1a.43.43,0,0,0,.44.43h9.88a.44.44,0,0,0,.44-.43V15.3A2.3,2.3,0,0,0,9.85,13.46Zm-7.7-5.6A3.14,3.14,0,0,1,5.29,5,3.22,3.22,0,0,1,8.43,7.86L8.93,13a16.79,16.79,0,0,0-2.13-.37.45.45,0,0,0-.46.29l-1,2.75L4.41,13A.45.45,0,0,0,4,12.67a18,18,0,0,0-2.32.42ZM9.89,19h-9V15.33A1.43,1.43,0,0,1,2,13.89c.63-.14,1.19-.24,1.71-.31L5,17.17a.44.44,0,0,0,.82,0l1.26-3.59c.52.06,1.07.17,1.71.31A1.44,1.44,0,0,1,9.88,15.3V19Z"/><path class="cls-1" d="M19.51,11.32a3.67,3.67,0,1,0-3.67-3.67A3.67,3.67,0,0,0,19.51,11.32Zm0-6.48A2.81,2.81,0,1,1,16.7,7.65,2.81,2.81,0,0,1,19.51,4.84Z"/><path class="cls-1" d="M22.74,12.44H21.28a.55.55,0,0,0-.5.33l-1.27,3.05-1.28-3.05a.54.54,0,0,0-.5-.33H16.28a3.38,3.38,0,0,0-3.38,3.37v3.64a.55.55,0,0,0,.55.55H25.57a.54.54,0,0,0,.54-.55V15.81A3.37,3.37,0,0,0,22.74,12.44ZM25,18.91H14v-3.1a2.29,2.29,0,0,1,2.29-2.28h1.09L19,17.43a.54.54,0,0,0,1,0l1.64-3.9h1.09A2.29,2.29,0,0,1,25,15.82Z"/><path class="cls-2" d="M19.51,9.76a2.11,2.11,0,1,1,2.11-2.11A2.12,2.12,0,0,1,19.51,9.76Z"/><path class="cls-1" d="M14,0a1.85,1.85,0,0,0-1.44.69A1.87,1.87,0,0,0,11.15,0,1.84,1.84,0,0,0,9.31,1.84c0,2.05,3,4,3.08,4.09a.39.39,0,0,0,.39,0c.13-.08,3.08-2,3.08-4.09A1.84,1.84,0,0,0,14,0ZM10,1.84a1.13,1.13,0,0,1,2.22-.27.36.36,0,0,0,.7,0,1.13,1.13,0,0,1,2.22.27c0,1.28-1.7,2.75-2.57,3.36C11.72,4.59,10,3.12,10,1.84Z"/></g></g></svg>