<svg xmlns="http://www.w3.org/2000/svg" viewBox="0 0 14 14"><defs><style>.cls-1{fill:#212121;}</style></defs><title>health_comment</title><g id="Layer_2" data-name="Layer 2"><g id="Layer_1-2" data-name="Layer 1"><path class="cls-1" d="M4.28,3.14H3.81V2.66a.38.38,0,0,0-.39-.39A.39.39,0,0,0,3,2.66v.48H2.57a.4.4,0,0,0-.39.39.39.39,0,0,0,.39.39H3v.49a.39.39,0,1,0,.78,0V3.92h.46a.39.39,0,0,0,.39-.39A.4.4,0,0,0,4.28,3.14Z"/><path class="cls-1" d="M7.37,6.71H2.53a.39.39,0,0,1,0-.78H7.37a.39.39,0,0,1,.39.39A.38.38,0,0,1,7.37,6.71Z"/><path class="cls-1" d="M5.55,9h-3a.39.39,0,0,1,0-.78h3a.4.4,0,0,1,.39.39A.39.39,0,0,1,5.55,9Z"/><path class="cls-1" d="M7.8,11.38H2.53A.4.4,0,0,1,2.14,11a.38.38,0,0,1,.39-.39H7.81A.39.39,0,0,1,8.2,11,.41.41,0,0,1,7.8,11.38Z"/><path class="cls-1" d="M7.8,4.38H5.38A.4.4,0,0,1,5,4a.38.38,0,0,1,.39-.39H7.8A.38.38,0,0,1,8.19,4,.39.39,0,0,1,7.8,4.38Z"/><path class="cls-1" d="M13.63,3.43a1.26,1.26,0,0,0-1.83,0L10.33,4.83V1.17A1.16,1.16,0,0,0,9.17,0h-8A1.17,1.17,0,0,0,0,1.17V12.83A1.17,1.17,0,0,0,1.17,14h8a1.16,1.16,0,0,0,1.16-1.17V8.46l3.28-3.2A1.29,1.29,0,0,0,13.63,3.43Zm-4.07,9.4a.4.4,0,0,1-.39.39h-8a.38.38,0,0,1-.39-.39V1.17A.38.38,0,0,1,1.17.78h8a.39.39,0,0,1,.39.39V5.6L6.85,8.24a.38.38,0,0,0-.12.28l0,1.28a.39.39,0,0,0,.39.39l1.28,0h0a.39.39,0,0,0,.27-.11l.9-.88v3.61ZM8.23,9.43H7.49V8.69l4.09-4,.72.74ZM13.06,4.7l-.19.19-.73-.74.2-.19a.52.52,0,0,1,.73,0A.51.51,0,0,1,13.06,4.7Z"/></g></g></svg>