<svg xmlns="http://www.w3.org/2000/svg" viewBox="0 0 16 16"><defs><style>.cls-1{opacity:0.39;}.cls-2{fill:#757575;}.cls-3{fill:#e0e0e0;}</style></defs><title>Asset 46</title><g id="Layer_2" data-name="Layer 2"><g id="Layer_1-2" data-name="Layer 1"><g class="cls-1"><path class="cls-2" d="M11.72,0A4.25,4.25,0,0,0,8,2.17a4.28,4.28,0,0,0-8,2.1c0,5,7.4,11.36,7.71,11.62a.45.45,0,0,0,.58,0C8.6,15.62,16,9.29,16,4.27A4.28,4.28,0,0,0,11.72,0ZM8,15A33.7,33.7,0,0,1,2.62,8.88H4.36a.44.44,0,0,0,.4-.25L6.1,5.92l1,4.35a.45.45,0,0,0,.84.08l.9-2L9,8.8a.43.43,0,0,0,.42.29h3.82A34.54,34.54,0,0,1,8,15ZM9.73,8.21,9.29,7a.44.44,0,0,0-.82,0l-.81,1.8-1-4.27a.45.45,0,0,0-.83-.1L4.08,8h-2C-.47,3.93,1.41.93,4.27.89A3.35,3.35,0,0,1,7.56,3.48a.45.45,0,0,0,.87,0,3.39,3.39,0,0,1,6.68.79A8.15,8.15,0,0,1,13.8,8.21Z"/><path class="cls-3" d="M8,13.77A33.2,33.2,0,0,0,12.16,9.1H9.42A.45.45,0,0,1,9,8.81l-.17-.47-.9,2a.45.45,0,0,1-.84-.08l-1-4.34L4.76,8.63a.46.46,0,0,1-.4.25H3.68A32.81,32.81,0,0,0,8,13.77Z"/><path class="cls-3" d="M11.85,1.78A2.49,2.49,0,0,0,9.29,3.69L9,4.2A1.16,1.16,0,0,1,7,4.2L6.7,3.69a2.48,2.48,0,0,0-4.26-1.1l-.53.89a2.26,2.26,0,0,0-.13.74l.09.89A9.15,9.15,0,0,0,3.1,8h1L5.85,4.41a.45.45,0,0,1,.84.09l1,4.27L8.47,7a.44.44,0,0,1,.82,0l.44,1.21h3a8.15,8.15,0,0,0,1.46-3.85A2.54,2.54,0,0,0,11.85,1.78Z"/></g></g></g></svg>