<svg xmlns="http://www.w3.org/2000/svg" viewBox="0 0 23.96 30.37"><defs><style>.cls-1{fill:#fff;}.cls-2{fill:#f8bbd0;}.cls-3{fill:#d40057;}</style></defs><title>Asset 3</title><g id="Layer_2" data-name="Layer 2"><g id="Layer_1-2" data-name="Layer 1"><circle class="cls-1" cx="6.44" cy="15" r="5"/><path class="cls-1" d="M9.37,14.59a4.95,4.95,0,1,0,0-7A4.94,4.94,0,0,0,9.37,14.59Z"/><path class="cls-2" d="M10.38,13.59a3.53,3.53,0,1,0,0-5A3.54,3.54,0,0,0,10.38,13.59Z"/><path class="cls-2" d="M6.44,18.52A3.53,3.53,0,1,0,2.91,15,3.53,3.53,0,0,0,6.44,18.52Z"/><path class="cls-3" d="M24,.74A.74.74,0,0,0,23.22,0H19.4a.75.75,0,1,0,0,1.49h2L16.87,6a6.44,6.44,0,1,0,1.05,1l4.56-4.55v2a.74.74,0,1,0,1.48,0V.74ZM16.38,14.59a5,5,0,1,1,0-7A4.95,4.95,0,0,1,16.38,14.59Z"/><path class="cls-3" d="M6.44,8.56A6.44,6.44,0,0,0,5.7,21.39v3.54H3a.76.76,0,0,0-.75.75.74.74,0,0,0,.75.74H5.7v3.21a.74.74,0,0,0,.74.74.75.75,0,0,0,.75-.74V26.42H9.92a.74.74,0,0,0,.74-.74.75.75,0,0,0-.74-.75H7.19V21.39A6.44,6.44,0,0,0,6.44,8.56Zm5,6.44a5,5,0,1,1-5-5A5,5,0,0,1,11.44,15Z"/></g></g></svg>