<svg xmlns="http://www.w3.org/2000/svg" viewBox="0 0 10 14.93"><defs><style>.cls-1{fill:#212121;}</style></defs><title>health_report</title><g id="Layer_2" data-name="Layer 2"><g id="Layer_1-2" data-name="Layer 1"><path class="cls-1" d="M7.47,10.34H2.54a.41.41,0,0,0-.42.41.42.42,0,0,0,.42.42H7.46a.42.42,0,0,0,.42-.42A.41.41,0,0,0,7.47,10.34Z"/><path class="cls-1" d="M7.47,12H2.54a.41.41,0,0,0-.42.41.42.42,0,0,0,.42.42H7.46a.42.42,0,0,0,.42-.42A.41.41,0,0,0,7.47,12Z"/><path class="cls-1" d="M8.76,2.72h-1V2.08a.41.41,0,0,0-.41-.42H6.43V1a1,1,0,0,0-1-1H4.61a1,1,0,0,0-1,1v.62H2.7a.42.42,0,0,0-.42.42v.64h-1A1.25,1.25,0,0,0,0,4v9.72a1.25,1.25,0,0,0,1.25,1.24h7.5A1.25,1.25,0,0,0,10,13.69V4A1.25,1.25,0,0,0,8.76,2.72ZM4.4,1A.21.21,0,0,1,4.61.83H5.4A.21.21,0,0,1,5.61,1v.62H4.41V1ZM3.11,2.49H6.89V3.88H3.11ZM1.25,3.55h1v.74a.41.41,0,0,0,.41.42H7.31a.42.42,0,0,0,.42-.42V3.55h1A.41.41,0,0,1,9.18,4V7.35H6.83a.43.43,0,0,0-.3.13l-.22.24L6.07,7a.42.42,0,0,0-.73-.1l-.9,1.23L4,5.87a.42.42,0,0,0-.74-.16L2,7.35H.84V4A.41.41,0,0,1,1.25,3.55ZM8.76,14.1H1.25a.41.41,0,0,1-.41-.41V8.18H2.23A.42.42,0,0,0,2.56,8L3.33,7l.48,2.3a.42.42,0,0,0,.74.16l1-1.36.21.59a.41.41,0,0,0,.69.14L7,8.18H9.17v5.51A.41.41,0,0,1,8.76,14.1Z"/></g></g></svg>