<svg xmlns="http://www.w3.org/2000/svg" viewBox="0 0 26 20.56"><defs><style>.cls-1{fill:#c2185b;}.cls-2{fill:#f8bbd0;}</style></defs><title>Asset 1</title><g id="Layer_2" data-name="Layer 2"><g id="Layer_1-2" data-name="Layer 1"><path class="cls-1" d="M25.89,4.59a4.86,4.86,0,0,0-7.48-3A8,8,0,0,0,13,0,8,8,0,0,0,7.59,1.6,4.86,4.86,0,0,0,1.1,8.69l.21.25a1.36,1.36,0,0,0,.13.3,2.25,2.25,0,0,0,2,1.09,3.45,3.45,0,0,0,1.64-.44,6.83,6.83,0,0,0,2-2.46,18.77,18.77,0,0,0,3.67,3.9v7a2.19,2.19,0,1,0,4.38,0v-7a18.77,18.77,0,0,0,3.67-3.9,6.83,6.83,0,0,0,2,2.46,3.45,3.45,0,0,0,1.64.44,2.25,2.25,0,0,0,2-1.09,1.36,1.36,0,0,0,.13-.3l.21-.25a4.85,4.85,0,0,0,1-4.1ZM4.64,9a2.46,2.46,0,0,1-1.16.31,1.29,1.29,0,0,1-1.17-.56,1.19,1.19,0,0,1,0-1,2.3,2.3,0,0,1,1-1.1,4.14,4.14,0,0,1,1.92-.28h0c.39,0,.82,0,1.28.05C5.48,8.45,4.82,8.92,4.64,9ZM6.23,4.87a3.64,3.64,0,0,0,0,.56c-.32,0-.67,0-1,0h0a5.59,5.59,0,0,0-2.4.39,3.42,3.42,0,0,0-1,.87,3.14,3.14,0,0,1-.1-1.72,3.19,3.19,0,0,1,4.88-2,4.75,4.75,0,0,0-.38,1.93Zm8,5.69A.65.65,0,0,0,14,11v7.32a.95.95,0,0,1-1.9,0V11a.65.65,0,0,0-.23-.48C9.06,8.28,7.47,6.21,7.47,4.87A3,3,0,0,1,9,2.12a8,8,0,0,1,4-.88,8,8,0,0,1,4,.88,3,3,0,0,1,1.5,2.75c0,1.34-1.59,3.41-4.35,5.69Zm9.51-1.79a1.29,1.29,0,0,1-1.17.56A2.46,2.46,0,0,1,21.36,9c-.18-.1-.84-.57-1.91-2.58.46,0,.89-.05,1.28-.05a4.14,4.14,0,0,1,1.92.28,2.3,2.3,0,0,1,1,1.1,1.19,1.19,0,0,1,0,1Zm.48-2.11a3.42,3.42,0,0,0-1-.87,5.59,5.59,0,0,0-2.4-.39c-.34,0-.69,0-1,0a3.64,3.64,0,0,0,.05-.56,4.59,4.59,0,0,0-.39-1.93,3.2,3.2,0,0,1,4.89,2,3.14,3.14,0,0,1-.1,1.72Z"/><path class="cls-2" d="M14.18,10.56A.65.65,0,0,0,14,11v7.32a.95.95,0,0,1-1.9,0V11a.65.65,0,0,0-.23-.48C9.06,8.28,7.47,6.21,7.47,4.87A3,3,0,0,1,9,2.12a8,8,0,0,1,4-.88,8,8,0,0,1,4,.88,3,3,0,0,1,1.5,2.75c0,1.34-1.59,3.41-4.35,5.69Z"/></g></g></svg>