<svg xmlns="http://www.w3.org/2000/svg" viewBox="0 0 22.5 22.5"><defs><style>.cls-1{fill:#d40057;}.cls-2{fill:none;stroke:#d40057;stroke-miterlimit:10;stroke-width:0.5px;}</style></defs><title>health_details_pink</title><g id="Layer_2" data-name="Layer 2"><g id="Feed_Posts" data-name="Feed + Posts"><path class="cls-1" d="M12.33,10.22h-.74V9.47a.34.34,0,1,0-.68,0v.75h-.74a.34.34,0,1,0,0,.67h.74v.74a.34.34,0,1,0,.68,0v-.74h.74a.34.34,0,1,0,0-.67Z"/><path class="cls-1" d="M16,7.44H13.36V6.26a1,1,0,0,0-1-1h-2.2a1,1,0,0,0-1,1V7.44H6.55A1.34,1.34,0,0,0,5.21,8.78v7.13a1.34,1.34,0,0,0,1.34,1.34H16a1.34,1.34,0,0,0,1.34-1.34V8.78A1.34,1.34,0,0,0,16,7.44ZM9.82,6.26a.33.33,0,0,1,.33-.34h2.2a.34.34,0,0,1,.34.34V7.44H9.82ZM16,16.58H6.55a.67.67,0,0,1-.67-.67V12.79a9.83,9.83,0,0,0,2,.8V14.7a.34.34,0,0,0,.68,0v-.94a12.39,12.39,0,0,0,2.69.29,12.55,12.55,0,0,0,2.7-.29v.94a.33.33,0,0,0,.33.33.34.34,0,0,0,.34-.33V13.59a9.6,9.6,0,0,0,2-.8v3.12h0A.67.67,0,0,1,16,16.58Zm-4.7-3.2A10.44,10.44,0,0,1,5.88,12V8.78a.68.68,0,0,1,.67-.67H16a.67.67,0,0,1,.67.67V12h0A10.44,10.44,0,0,1,11.25,13.38Z"/><circle class="cls-2" cx="11.25" cy="11.25" r="11"/></g></g></svg>