<svg xmlns="http://www.w3.org/2000/svg" viewBox="0 0 32.92 26.03">
    <defs>
        <!--        <style>.cls-1{fill:#c2185b;}.cls-2{fill:#f8bbd0;}</style>-->
    </defs>
    <title>Asset 34</title>
    <g id="Layer_2" data-name="Layer 2">
        <g id="Layer_1-2" data-name="Layer 1">
            <path style="fill:#c2185b;"
                  d="M32.78,5.81A6.14,6.14,0,0,0,23.31,2C21.86.71,19.53,0,16.46,0S11.07.71,9.61,2A6.15,6.15,0,0,0,1.4,11l.26.32a3.08,3.08,0,0,0,.16.38,2.86,2.86,0,0,0,2.59,1.37,4.31,4.31,0,0,0,2.07-.55A8.76,8.76,0,0,0,9,9.41a24.05,24.05,0,0,0,4.64,4.94v8.9a2.78,2.78,0,0,0,5.56,0v-8.9a23.79,23.79,0,0,0,4.64-4.94,8.87,8.87,0,0,0,2.56,3.12,4.37,4.37,0,0,0,2.07.55,2.86,2.86,0,0,0,2.59-1.37,3.17,3.17,0,0,0,.17-.38l.26-.32a6.11,6.11,0,0,0,1.25-5.2ZM5.88,11.42a3.07,3.07,0,0,1-1.47.4,1.61,1.61,0,0,1-1.48-.72,1.48,1.48,0,0,1,0-1.26,2.94,2.94,0,0,1,1.31-1.4,5.5,5.5,0,0,1,2.43-.35h0c.5,0,1,0,1.62.07C6.94,10.7,6.1,11.3,5.88,11.42Zm2-5.26A4.46,4.46,0,0,0,8,6.88c-.41,0-.84,0-1.28,0h0a6.85,6.85,0,0,0-3,.51A4.45,4.45,0,0,0,2.32,8.43a4.05,4.05,0,0,1,6.06-4.7,5.73,5.73,0,0,0-.49,2.43ZM18,13.38a.76.76,0,0,0-.29.6v9.27a1.21,1.21,0,1,1-2.41,0V14a.79.79,0,0,0-.29-.6c-3.5-2.89-5.51-5.52-5.51-7.22a3.78,3.78,0,0,1,1.9-3.48,10.1,10.1,0,0,1,5.1-1.11,10.08,10.08,0,0,1,5.1,1.11,3.79,3.79,0,0,1,1.91,3.48c0,1.7-2,4.33-5.51,7.22ZM30,11.1a1.63,1.63,0,0,1-1.49.72,3,3,0,0,1-1.46-.4c-.23-.12-1.06-.72-2.41-3.26.57-.05,1.12-.07,1.61-.07a5.5,5.5,0,0,1,2.43.35A2.92,2.92,0,0,1,30,9.84a1.48,1.48,0,0,1,0,1.26Zm.61-2.67a4.58,4.58,0,0,0-1.32-1.09,6.93,6.93,0,0,0-3-.51c-.43,0-.87,0-1.28,0A3.58,3.58,0,0,0,25,6.16a5.89,5.89,0,0,0-.49-2.43,4,4,0,0,1,6.18,2.52,4.12,4.12,0,0,1-.12,2.18Z"/>
            <path style="fill:#f8bbd0;"
                  d="M5.88,11.42a3.07,3.07,0,0,1-1.47.4,1.61,1.61,0,0,1-1.48-.72,1.48,1.48,0,0,1,0-1.26,2.94,2.94,0,0,1,1.31-1.4,5.5,5.5,0,0,1,2.43-.35h0c.5,0,1,0,1.62.07C6.94,10.7,6.1,11.3,5.88,11.42Z"/>
            <path style="fill:#f8bbd0;"
                  d="M18,13.38a.76.76,0,0,0-.29.6v9.27a1.21,1.21,0,1,1-2.41,0V14a.79.79,0,0,0-.29-.6c-3.5-2.89-5.51-5.52-5.51-7.22a3.78,3.78,0,0,1,1.9-3.48,10.1,10.1,0,0,1,5.1-1.11,10.08,10.08,0,0,1,5.1,1.11,3.79,3.79,0,0,1,1.91,3.48c0,1.7-2,4.33-5.51,7.22Z"/>
            <path style="fill:#f8bbd0;"
                  d="M30,11.1a1.63,1.63,0,0,1-1.49.72,3,3,0,0,1-1.46-.4c-.23-.12-1.06-.72-2.41-3.26.57-.05,1.12-.07,1.61-.07a5.5,5.5,0,0,1,2.43.35A2.92,2.92,0,0,1,30,9.84a1.48,1.48,0,0,1,0,1.26Z"/>
        </g>
    </g>
</svg>