<svg xmlns="http://www.w3.org/2000/svg" viewBox="0 0 16.49 15.49">
    <defs>
<!--        <style>-->
<!--            .cls-1,.cls-2{fill:none;stroke:#000;stroke-linecap:round;stroke-linejoin:round;stroke-width:0.49px;}.cls-1{fill-rule:evenodd;}-->
<!--        </style>-->
    </defs>
    <title>Asset 22</title>
    <g id="Layer_2" data-name="Layer 2">
        <g id="Layer_1-2" data-name="Layer 1">
            <path style="fill-rule:evenodd;fill:none;stroke:#000;stroke-linecap:round;stroke-linejoin:round;stroke-width:0.49px;"
                  d="M5.82,7.46C7.34,4.52,9.34,3.7,8.65.84c-.06-.23.29-.63.62-.59h0C10.08.34,10.61,1.4,10.83,2a6.47,6.47,0,0,1-.37,4c.79,0,2.7,0,4.71.1a1.07,1.07,0,0,1,1.07,1.13,1.06,1.06,0,0,1-1,1.08H12m2.71,2.31a1.71,1.71,0,0,1,.23,1,1.31,1.31,0,0,1-1.29,1.26H11.37m3.86-4.6a1.54,1.54,0,0,1,.31,1.07,1.25,1.25,0,0,1-1.24,1.22H11.71"/>
            <line style="fill:none;stroke:#000;stroke-linecap:round;stroke-linejoin:round;stroke-width:0.49px;" x1="4.35" y1="6.59" x2="6.26" y2="6.59"/>
            <path style="fill-rule:evenodd;fill:none;stroke:#000;stroke-linecap:round;stroke-linejoin:round;stroke-width:0.49px;"
                  d="M3.76,14.67H1.31a.6.6,0,0,1-.59-.49A46.72,46.72,0,0,1,.25,6.59.58.58,0,0,1,.84,6H3.76a.58.58,0,0,1,.59.58v7.5A.58.58,0,0,1,3.76,14.67Z"/>
            <path style="fill-rule:evenodd;fill:none;stroke:#000;stroke-linecap:round;stroke-linejoin:round;stroke-width:0.49px;"
                  d="M13.7,13a1.82,1.82,0,0,1,.07.71c0,.74-.58,1.1-1.47,1.28a18,18,0,0,1-3.83.28,4.89,4.89,0,0,1-2.94-1.15H4.35"/>
            <line style="fill:none;stroke:#000;stroke-linecap:round;stroke-linejoin:round;stroke-width:0.49px;"
                  x1="10.53" y1="6.01" x2="9.65" y2="6.01"/>
            <line style="fill:none;stroke:#000;stroke-linecap:round;stroke-linejoin:round;stroke-width:0.49px;"
                  x1="2.88" y1="13.23" x2="2.88" y2="13.23"/>
        </g>
    </g>
</svg>