<svg xmlns="http://www.w3.org/2000/svg" viewBox="0 0 79.72 50.76"><defs><style>.cls-1{fill:#fff;}.cls-2{fill:#0cbccd;}.cls-3{fill:#355d84;}.cls-4{fill:none;stroke:#fff;stroke-miterlimit:10;}</style></defs><title>login_left_img</title><g id="Layer_2" data-name="Layer 2"><g id="Layer_1-2" data-name="Layer 1"><path class="cls-1" d="M72.7,30.54V47H7.31V7.74A2.59,2.59,0,0,1,9.89,5.16h8.46"/><polyline class="cls-2" points="69.83 30.54 69.83 44.16 10.18 44.16 10.18 8.03 18.35 8.03"/><path class="cls-1" d="M0,47H79.72a0,0,0,0,1,0,0v0A3.73,3.73,0,0,1,76,50.76H3.73A3.73,3.73,0,0,1,0,47v0a0,0,0,0,1,0,0Z"/><path class="cls-3" d="M79.58,2.58V27.82A2.59,2.59,0,0,1,77,30.4H36.56l-7.17,7.17V30.4h-8.6a2.59,2.59,0,0,1-2.58-2.58V2.58A2.59,2.59,0,0,1,20.79,0H77A2.59,2.59,0,0,1,79.58,2.58Z"/><path class="cls-1" d="M25.67,11.76h0A3.16,3.16,0,0,1,28.82,8.6h0A3.17,3.17,0,0,1,32,11.76H25.67Z"/><circle class="cls-4" cx="28.82" cy="6.31" r="1.43"/><path class="cls-1" d="M25.67,20.07v4h7.45v-4Zm3.72,2.87a.86.86,0,1,1,.86-.86A.86.86,0,0,1,29.39,22.94Z"/><path class="cls-4" d="M29.25,18.07h0a1.58,1.58,0,0,1,1.58,1.58v.43a0,0,0,0,1,0,0H27.67a0,0,0,0,1,0,0v-.43A1.58,1.58,0,0,1,29.25,18.07Z"/><rect class="cls-4" x="37.14" y="4.88" width="36.13" height="6.88" rx="3" ry="3"/><rect class="cls-4" x="37.14" y="17.21" width="36.13" height="6.88" rx="3" ry="3"/></g></g></svg>