<svg xmlns="http://www.w3.org/2000/svg" viewBox="0 0 154 73.13"><defs><style>.cls-1{fill:#dfeaea;}.cls-2{fill:#fff;}.cls-3{fill:#0cbccd;}.cls-4{fill:#355d84;}.cls-5{fill:none;stroke:#fff;stroke-miterlimit:10;}</style></defs><title>login_left_main_img</title><g id="Layer_2" data-name="Layer 2"><g id="Layer_1-2" data-name="Layer 1"><path class="cls-1" d="M2,0H152a2,2,0,0,1,2,2V73.13a0,0,0,0,1,0,0H0a0,0,0,0,1,0,0V2A2,2,0,0,1,2,0Z"/><path class="cls-2" d="M109.84,41.73V58.22H44.45V18.93A2.58,2.58,0,0,1,47,16.35h8.46"/><polyline class="cls-3" points="106.97 41.73 106.97 55.35 47.32 55.35 47.32 19.21 55.49 19.21"/><path class="cls-2" d="M37.14,58.22h79.72a0,0,0,0,1,0,0v0a3.73,3.73,0,0,1-3.73,3.73H40.87a3.73,3.73,0,0,1-3.73-3.73v0a0,0,0,0,1,0,0Z"/><path class="cls-4" d="M116.72,13.77V39a2.58,2.58,0,0,1-2.58,2.58H73.7l-7.17,7.17V41.58h-8.6A2.57,2.57,0,0,1,55.35,39V13.77a2.58,2.58,0,0,1,2.58-2.59h56.21A2.59,2.59,0,0,1,116.72,13.77Z"/><path class="cls-2" d="M62.8,22.94h0A3.16,3.16,0,0,1,66,19.79h0a3.15,3.15,0,0,1,3.15,3.15H62.8Z"/><circle class="cls-5" cx="65.96" cy="17.49" r="1.43"/><path class="cls-2" d="M62.8,31.26v4h7.46v-4Zm3.73,2.87a.86.86,0,1,1,0-1.72.86.86,0,1,1,0,1.72Z"/><path class="cls-5" d="M66.39,29.25h0A1.58,1.58,0,0,1,68,30.83v.43a0,0,0,0,1,0,0H64.81a0,0,0,0,1,0,0v-.43A1.58,1.58,0,0,1,66.39,29.25Z"/><rect class="cls-5" x="74.28" y="16.06" width="36.13" height="6.88" rx="3" ry="3"/><rect class="cls-5" x="74.28" y="28.39" width="36.13" height="6.88" rx="3" ry="3"/></g></g></svg>