<svg xmlns="http://www.w3.org/2000/svg" viewBox="0 0 115.39 25.73">
    <defs>
        <style>.cls-1{font-size:12px;font-family:Poppins, Poppins;font-weight:700;}.cls-1,.cls-2{fill:#fff;}</style>
    </defs>
    <title>main_logo</title>
    <g id="Layer_2" data-name="Layer 2">
        <g id="Layer_1-2" data-name="Layer 1">
            <text style="font-size:12px;font-family:Poppins, Poppins;font-weight:700;fill:#fff;"
                  transform="translate(28.02 15.81)">OoWomaniya
            </text>
            <path style="fill:#fff;"
                  d="M7.16,25.73a4.61,4.61,0,0,1,0-.93,3,3,0,0,0-1.62-3.42A11.27,11.27,0,0,1,.22,13.74a11.5,11.5,0,1,1,13.27,9.09,14.36,14.36,0,0,1-2.62.17,2.63,2.63,0,0,0-2.44,1.26c-.24.37-.48.75-.75,1.11A2.37,2.37,0,0,1,7.16,25.73Zm-3.08-18C5,10.6,5.82,13.36,6.69,16.11a.57.57,0,0,0,.42.29c.52,0,1,0,1.56,0a.61.61,0,0,0,.67-.49c.12-.43.25-.85.38-1.28l1.14-3.92A1.45,1.45,0,0,1,11,11c.46,1.59.92,3.19,1.36,4.79a.7.7,0,0,0,.8.61,10,10,0,0,1,1.34,0c.38,0,.53-.12.64-.47.79-2.59,1.6-5.18,2.41-7.77a2.76,2.76,0,0,0,.06-.4l-.2-.06H16c-.83,0-1,.13-1.18.93-.37,1.61-.75,3.22-1.15,4.94-.07-.19-.11-.26-.13-.34-.37-1.36-.73-2.73-1.1-4.09s-.41-1.49-2-1.45a.9.9,0,0,0-.95.75c-.4,1.5-.83,3-1.26,4.49-.05.17-.12.33-.22.61-.41-1.81-.79-3.46-1.14-5.12-.09-.41-.29-.67-.7-.69C5.55,7.72,4.86,7.74,4.08,7.74Zm13.47,6.61H17c-.36,0-.46.17-.46.5s.18.45.47.41c.54-.08.78.11.69.67,0,.33.09.49.45.49s.48-.16.46-.5a4.26,4.26,0,0,1,0-.48c.4-.38,1.12.18,1.15-.59s-.75-.31-1-.52.28-1.08-.57-1.08S18,14,17.55,14.35Z"/>
        </g>
    </g>
</svg>