<svg xmlns="http://www.w3.org/2000/svg" viewBox="0 0 26.52 16">
    <defs>
<!--        <style>.cls-1{fill:#931b1d;}.cls-2{fill:#f16622;}.cls-3{fill:#f7981d;}.cls-4{fill:#cb2026;}.cls-5{fill:#fff;}-->
<!--        </style>-->
    </defs>
    <title>mastercard</title>
    <g id="Layer_2" data-name="Layer 2">
        <g id="Layer_1-2" data-name="Layer 1">
            <path style="fill:#931b1d;"
                  d="M7.89,0a8,8,0,1,0,5.39,13.84h0a6.44,6.44,0,0,0,.8-.85H12.46a5.86,5.86,0,0,1-.59-.82h2.8a6.3,6.3,0,0,0,.46-.85H11.4c-.12-.27-.23-.55-.33-.83h4.4A8.12,8.12,0,0,0,15.87,8a8,8,0,0,0-.18-1.7H10.84a7.84,7.84,0,0,1,.23-.83h4.39a8.09,8.09,0,0,0-.34-.86H11.4c.14-.28.29-.56.46-.83h2.8a8.72,8.72,0,0,0-.61-.85H12.48a6.8,6.8,0,0,1,.8-.81A7.94,7.94,0,0,0,7.94,0Z"/>
            <path style="fill:#f16622;" d="M26.52,8A7.94,7.94,0,1,1,10.65,8h0A7.94,7.94,0,1,1,26.52,8Z"/>
            <path style="fill:#f7981d;" d="M26.52,8a7.94,7.94,0,1,1-15.87,0h0A7.94,7.94,0,1,1,26.52,8Z"/>
            <path style="fill:#cb2026;"
                  d="M7.89.09a8,8,0,1,0,5.39,13.84h0a6.44,6.44,0,0,0,.8-.85H12.46a5.86,5.86,0,0,1-.59-.82h2.8a6.3,6.3,0,0,0,.46-.85H11.4c-.12-.27-.23-.55-.33-.83h4.4A8.12,8.12,0,0,0,15.87,8a8,8,0,0,0-.18-1.7H10.84a7.84,7.84,0,0,1,.23-.83h4.39a8.09,8.09,0,0,0-.34-.86H11.4c.14-.28.29-.56.46-.83h2.8A8.72,8.72,0,0,0,14.05,3H12.48a6.8,6.8,0,0,1,.8-.81A7.94,7.94,0,0,0,7.94.09Z"/>
            <path style="fill:#fff;"
                  d="M10.79,10.07l.11-.72-.22,0c-.29,0-.33-.15-.31-.27l.24-1.47h.45l.1-.79h-.42l.09-.5H10s-.5,2.79-.5,3.12a.63.63,0,0,0,.68.72,2.16,2.16,0,0,0,.63-.11Z"/>
            <path style="fill:#fff;"
                  d="M11.06,8.7a1.33,1.33,0,0,0,1.46,1.48,2.11,2.11,0,0,0,.89-.14l.15-.82a2.6,2.6,0,0,1-.9.21c-.9,0-.75-.68-.75-.68h1.72A6.2,6.2,0,0,0,13.74,8a1.14,1.14,0,0,0-1.2-1.24c-.85,0-1.48.92-1.48,2Zm1.48-1.2c.48,0,.39.54.39.58H12c0-.05.09-.58.55-.58Z"/>
            <path style="fill:#fff;"
                  d="M17.89,10.07,18,9.15a2.05,2.05,0,0,1-.7.2c-.6,0-.84-.45-.84-.95,0-1,.52-1.55,1.09-1.55a1.5,1.5,0,0,1,.78.25l.14-.9a3,3,0,0,0-1-.21c-1,0-1.93.85-1.93,2.44,0,1.06.51,1.76,1.52,1.76a3.71,3.71,0,0,0,.74-.12Z"/>
            <path style="fill:#fff;"
                  d="M6.14,6.76a3,3,0,0,0-1,.18L5,7.67a2.6,2.6,0,0,1,.92-.15c.31,0,.54,0,.54.29a.55.55,0,0,1,0,.22L6.07,8c-.73,0-1.5.31-1.5,1.25a.81.81,0,0,0,.82.92,1.14,1.14,0,0,0,.87-.39l0,.32H7L7.3,7.78a1,1,0,0,0-1.16-1Zm.18,1.89c0,.15-.08.81-.59.81a.3.3,0,0,1-.33-.32c0-.23.12-.51.74-.51a.63.63,0,0,1,.18,0Z"/>
            <path style="fill:#fff;"
                  d="M8.09,10.16c.19,0,1.28.05,1.28-1.08s-1-.84-1-1.27c0-.21.16-.27.46-.27l.58,0,.1-.75a3.61,3.61,0,0,0-.77-.07c-.63,0-1.26.25-1.26,1.11s1,.87,1,1.28-.29.29-.52.29a2.5,2.5,0,0,1-.75-.13l-.11.74a2.43,2.43,0,0,0,.94.11Z"/>
            <path style="fill:#fff;"
                  d="M24.89,6.08l-.18,1.14a1.12,1.12,0,0,0-.82-.44c-.77,0-1.42.93-1.42,2,0,.69.35,1.37,1.05,1.37a1.06,1.06,0,0,0,.79-.35l0,.3h.82l.65-4ZM24.5,8.3c0,.44-.22,1-.68,1-.3,0-.45-.26-.45-.66,0-.65.3-1.09.67-1.09s.46.21.46.71Z"/>
            <path style="fill:#fff;"
                  d="M1.57,10.11l.51-3,.08,3h.58l1.09-3-.49,3h.87l.67-4H3.54L2.71,8.56l0-2.48H1.43l-.68,4Z"/>
            <path style="fill:#fff;"
                  d="M14.59,10.12c.24-1.4.29-2.54.88-2.33a3.28,3.28,0,0,1,.31-1,.48.48,0,0,0-.16,0c-.38,0-.66.52-.66.52L15,6.84h-.78l-.53,3.28Z"/>
            <path style="fill:#fff;"
                  d="M19.84,6.76a3,3,0,0,0-1,.18l-.12.73a2.6,2.6,0,0,1,.92-.15c.31,0,.54,0,.54.29a.55.55,0,0,1,0,.22l-.36,0c-.73,0-1.5.31-1.5,1.25a.81.81,0,0,0,.82.92A1.09,1.09,0,0,0,20,9.79l0,.32h.74L21,7.78a1,1,0,0,0-1.16-1ZM20,8.65c0,.15-.09.81-.6.81a.31.31,0,0,1-.33-.32c0-.23.13-.51.75-.51a.63.63,0,0,1,.18,0Z"/>
            <path style="fill:#fff;"
                  d="M21.68,10.12c.25-1.4.29-2.54.88-2.33a3.28,3.28,0,0,1,.31-1,.48.48,0,0,0-.16,0c-.38,0-.66.52-.66.52l.08-.47h-.79l-.53,3.28Z"/>
        </g>
    </g>
</svg>