<svg xmlns="http://www.w3.org/2000/svg" viewBox="0 0 13 14.06"><defs><style>.cls-1{fill:#fff;}.cls-2{fill:none;stroke:#fff;stroke-miterlimit:10;}</style></defs><title>notification_menu</title><g id="Layer_2" data-name="Layer 2"><g id="Layer_1-2" data-name="Layer 1"><path class="cls-1" d="M6.5,1a3.22,3.22,0,0,1,.76.09V.76a.76.76,0,1,0-1.52,0V1.1A3.22,3.22,0,0,1,6.5,1Z"/><path class="cls-2" d="M10.05,7.11V4.92A3.55,3.55,0,0,0,6.5,1.37h0A3.55,3.55,0,0,0,3,4.92V7.11a5.06,5.06,0,0,1-1.22,3.3L.62,11.7a.5.5,0,0,0,.39.83H12a.5.5,0,0,0,.39-.83l-1.11-1.29A5.06,5.06,0,0,1,10.05,7.11Z"/><path class="cls-1" d="M7.77,12.79a1.27,1.27,0,0,1-2.54,0v-.26H7.77Z"/></g></g></svg>