<svg xmlns="http://www.w3.org/2000/svg" viewBox="0 0 16.81 19.07"><defs><style>.cls-1{opacity:0.39;}.cls-2{fill:none;stroke:#757575;stroke-linecap:round;stroke-linejoin:round;stroke-width:0.81px;}.cls-3{fill:#e0e0e0;}</style></defs><title>Asset 47</title><g id="Layer_2" data-name="Layer 2"><g id="Layer_1-2" data-name="Layer 1"><g class="cls-1"><path class="cls-2" d="M8.41,1.76a4.88,4.88,0,0,1,1,.11V1.42a1,1,0,0,0-2,0v.45A4.9,4.9,0,0,1,8.41,1.76Z"/><path class="cls-2" d="M13.14,9.4V6.49A4.73,4.73,0,0,0,8.41,1.76h0A4.74,4.74,0,0,0,3.67,6.49V9.4A6.74,6.74,0,0,1,2,13.8L.57,15.52a.68.68,0,0,0,.51,1.12H15.73a.68.68,0,0,0,.51-1.12L14.77,13.8A6.74,6.74,0,0,1,13.14,9.4Z"/><path class="cls-2" d="M10.1,17a1.7,1.7,0,0,1-3.39,0v-.34H10.1Z"/><path class="cls-3" d="M11.41,9.54V7.25c0-2.06-1.35-3.72-3-3.72h0c-1.66,0-3,1.66-3,3.72V9.54a6.13,6.13,0,0,1-1,3.46l-.93,1.35c-.24.34,0,.88.32.88h9.29c.37,0,.56-.54.32-.88L12.44,13A6.13,6.13,0,0,1,11.41,9.54Z"/></g></g></g></svg>