<svg xmlns="http://www.w3.org/2000/svg" viewBox="0 0 13 13.18"><defs><style>.cls-1{fill:none;stroke:#fff;stroke-miterlimit:10;}.cls-2{fill:#fff;}</style></defs><title>Asset 65</title><g id="Layer_2" data-name="Layer 2"><g id="Layer_1-2" data-name="Layer 1"><path class="cls-1" d="M10.05,6.23V4.05A3.55,3.55,0,0,0,6.5.5h0A3.55,3.55,0,0,0,3,4.05V6.23a5.06,5.06,0,0,1-1.22,3.3L.62,10.82a.51.51,0,0,0,.39.84H12a.51.51,0,0,0,.39-.84L11.27,9.53A5.06,5.06,0,0,1,10.05,6.23Z"/><path class="cls-2" d="M7.77,11.91a1.27,1.27,0,0,1-2.54,0v-.25H7.77Z"/></g></g></svg>