<svg xmlns="http://www.w3.org/2000/svg" viewBox="0 0 21.5 19.98"><defs><style>.cls-1{fill:none;}.cls-1,.cls-2{stroke:#d40057;stroke-linecap:round;stroke-linejoin:round;}.cls-2{fill:#f8bbd0;}</style></defs><title>Asset 1</title><g id="Layer_2" data-name="Layer 2"><g id="Layer_1-2" data-name="Layer 1"><circle class="cls-1" cx="17.58" cy="11.51" r="0.38"/><path class="cls-2" d="M16.44,13.41a.76.76,0,0,1-.75-.76V10.37a.76.76,0,0,1,.75-.76h3.8V5.06a1.52,1.52,0,0,0-1.52-1.52H2A1.52,1.52,0,0,1,.5,2V18A1.52,1.52,0,0,0,2,19.48h16.7A1.52,1.52,0,0,0,20.24,18V13.41Z"/><rect class="cls-1" x="15.69" y="9.61" width="5.31" height="3.8" rx="0.76" ry="0.76"/><path class="cls-1" d="M18.72,3.54H2A1.52,1.52,0,0,1,.5,2h0A1.52,1.52,0,0,1,2,.5H17.2A1.52,1.52,0,0,1,18.72,2Z"/></g></g></svg>