<svg xmlns="http://www.w3.org/2000/svg" viewBox="0 0 31 31"><defs><style>.cls-1{fill:none;stroke:#d40057;stroke-miterlimit:10;}.cls-2{fill:#d40057;}</style></defs><title>Asset 55</title><g id="Layer_2" data-name="Layer 2"><g id="Layer_1-2" data-name="Layer 1"><circle class="cls-1" cx="15.5" cy="15.5" r="15"/><path class="cls-2" d="M20.54,10.9h-.71v-.72a.44.44,0,0,0-.44-.44.44.44,0,0,0-.43.44v.72h-.71a.44.44,0,0,0-.44.43.44.44,0,0,0,.44.44H19v.71a.43.43,0,0,0,.43.43.44.44,0,0,0,.44-.43v-.71h.71a.44.44,0,0,0,.44-.44A.44.44,0,0,0,20.54,10.9Z"/><path class="cls-2" d="M21.82,8.31H17a1.46,1.46,0,0,0-1.46,1.46v3.12a1.47,1.47,0,0,0,1,1.39V16a.44.44,0,0,0,.73.31l2.08-1.93h2.48a1.46,1.46,0,0,0,1.46-1.46V9.77A1.47,1.47,0,0,0,21.82,8.31Zm.59,4.58a.59.59,0,0,1-.59.59H19.17a.46.46,0,0,0-.3.11L17.4,15V13.91a.44.44,0,0,0-.43-.44.59.59,0,0,1-.6-.59V9.77a.59.59,0,0,1,.6-.59h4.85a.59.59,0,0,1,.6.59v3.12Z"/><path class="cls-2" d="M17.5,18.41a1.39,1.39,0,0,0-1.91-.47l-1.33.81a.33.33,0,0,1-.2.05,3,3,0,0,1-2-1.65,4.33,4.33,0,0,1-.65-1.81c0-.43,0-.76.22-.87L13,13.66a1.38,1.38,0,0,0,.46-1.9L11.76,9a1.39,1.39,0,0,0-1.9-.45L9.09,9c-2.14,1.3-1.86,5.52.63,9.61,1.95,3.2,4.7,5.34,6.84,5.35h0A2.66,2.66,0,0,0,18,23.56l.76-.46a1.39,1.39,0,0,0,.47-1.91Zm.78,3.94-.77.47a1.75,1.75,0,0,1-1,.25h0c-1.82,0-4.33-2-6.1-4.93a13.93,13.93,0,0,1-1.8-4.53l-.11-.87c0-.17,0-.33,0-.49l.06-.87a2.27,2.27,0,0,1,1-1.66l.76-.46a.53.53,0,0,1,.72.17l1.69,2.79a.52.52,0,0,1-.17.71l-1.33.81a1.66,1.66,0,0,0-.64,1.68,5.24,5.24,0,0,0,.78,2.18,3.74,3.74,0,0,0,2.71,2.07,1.29,1.29,0,0,0,.65-.17l1.33-.81a.53.53,0,0,1,.72.17l1.69,2.78A.52.52,0,0,1,18.28,22.35Z"/></g></g></svg>