<svg xmlns="http://www.w3.org/2000/svg" viewBox="0 0 12 12"><defs><style>.cls-1{opacity:0.39;}.cls-2{fill:#757575;}</style></defs><title>Asset 58</title><g id="Layer_2" data-name="Layer 2"><g id="Layer_1-2" data-name="Layer 1"><g class="cls-1"><path class="cls-2" d="M9.9,2H9.35V1.43a.34.34,0,0,0-.67,0V2H8.14a.34.34,0,1,0,0,.67h.54V3.2A.34.34,0,0,0,9,3.53a.33.33,0,0,0,.33-.33V2.65H9.9A.34.34,0,0,0,9.9,2Z"/><path class="cls-2" d="M10.88,0H7.15A1.12,1.12,0,0,0,6,1.12V3.51a1.12,1.12,0,0,0,.79,1.07V5.87a.33.33,0,0,0,.56.24L9,4.63h1.91A1.12,1.12,0,0,0,12,3.51V1.12A1.12,1.12,0,0,0,10.88,0Zm.46,3.51a.47.47,0,0,1-.46.46h-2a.32.32,0,0,0-.23.09L7.49,5.11V4.3A.34.34,0,0,0,7.15,4a.45.45,0,0,1-.45-.45V1.12A.46.46,0,0,1,7.15.66h3.73a.47.47,0,0,1,.46.46V3.51Z"/><path class="cls-2" d="M7.56,7.75A1.06,1.06,0,0,0,6.1,7.4L5.07,8a.33.33,0,0,1-.15,0c-.37,0-1-.44-1.52-1.28A3.47,3.47,0,0,1,2.9,5.4c0-.33,0-.58.18-.67l1-.62a1.06,1.06,0,0,0,.35-1.46L3.16.51A1.08,1.08,0,0,0,1.69.16L1.1.52c-1.64,1-1.42,4.23.49,7.38C3.08,10.35,5.19,12,6.84,12h0a2.05,2.05,0,0,0,1.08-.29l.59-.35a1.06,1.06,0,0,0,.36-1.47Zm.6,3-.59.36a1.32,1.32,0,0,1-.73.19h0c-1.4,0-3.33-1.56-4.68-3.78A10.38,10.38,0,0,1,.78,4.07L.69,3.4c0-.13,0-.25,0-.38l0-.66a1.77,1.77,0,0,1,.73-1.28L2,.73a.4.4,0,0,1,.55.13L3.89,3a.4.4,0,0,1-.13.55l-1,.62a1.28,1.28,0,0,0-.49,1.29,4,4,0,0,0,.59,1.67A2.88,2.88,0,0,0,4.93,8.72a1,1,0,0,0,.5-.13l1-.62A.41.41,0,0,1,7,8.1l1.3,2.14A.4.4,0,0,1,8.16,10.78Z"/></g></g></g></svg>