<svg xmlns="http://www.w3.org/2000/svg" viewBox="0 0 18.28 16.8"><defs><style>.cls-1{fill:none;stroke:#d40057;stroke-miterlimit:10;stroke-width:0.8px;}</style></defs><title>piggy_outline</title><g id="Layer_2" data-name="Layer 2"><g id="Layer_1-2" data-name="Layer 1"><path class="cls-1" d="M2.21,8.27a1.81,1.81,0,1,1,0-3.61"/><path class="cls-1" d="M16.37,6.46h-.11a2.39,2.39,0,0,1-1.93-1l-.14-.18c.77-.44,1.69-2.14,1.45-2.67-.15-.34-2.47-.18-3.32,1.05l0,0a7.11,7.11,0,0,0-3.46-.88c-3.66,0-6.63,2.7-6.63,6a5.59,5.59,0,0,0,1,3.11,2.69,2.69,0,0,1,.36,2.17l-.23.78c-.33,1.2,3.29,2,3.59,1L7,15.48a.85.85,0,0,1,.93-.63,8.72,8.72,0,0,0,.9.05,6.79,6.79,0,0,0,.78,0,.87.87,0,0,1,1,.63l.15.45c.33,1,4,.14,3.58-1l-.21-.66a2.61,2.61,0,0,1,.36-2.17h0a1.79,1.79,0,0,1,1.47-.79h.45c.83,0,1.51-1.08,1.51-2.42S17.2,6.46,16.37,6.46Z"/><path class="cls-1" d="M4.46,13.4A6,6,0,0,1,3.16,12"/><path class="cls-1" d="M8.13,14.86a6.56,6.56,0,0,1-1.55-.38"/><path class="cls-1" d="M11,14.59a7.29,7.29,0,0,1-1.33.27"/><path class="cls-1" d="M14.45,12.08a4.59,4.59,0,0,1-1.3,1.37"/><path class="cls-1" d="M15.29,10.26a5.83,5.83,0,0,1-.71,1.64"/><path class="cls-1" d="M6.67,3.1a2.61,2.61,0,0,1,0-.48,2.22,2.22,0,1,1,4.43,0,2.12,2.12,0,0,1,0,.44"/><line class="cls-1" x1="8.84" y1="6.46" x2="8.84" y2="11.21"/><line class="cls-1" x1="6.46" y1="8.84" x2="11.21" y2="8.84"/></g></g></svg>