<svg xmlns="http://www.w3.org/2000/svg" viewBox="0 0 23.67 21.75"><defs><style>.cls-1{fill:none;}.cls-1,.cls-2{stroke:#d40057;stroke-miterlimit:10;stroke-width:1.04px;}.cls-2{fill:#f8bbd0;}</style></defs><title>piggy</title><g id="Layer_2" data-name="Layer 2"><g id="Layer_1-2" data-name="Layer 1"><path class="cls-1" d="M2.86,10.71A2.34,2.34,0,1,1,2.86,6"/><path class="cls-2" d="M21.2,8.37h-.14a3.11,3.11,0,0,1-2.5-1.25l-.18-.23c1-.57,2.18-2.77,1.88-3.45C20.06,3,17.05,3.2,16,4.79c0,0,0,0,0,0a9.23,9.23,0,0,0-4.48-1.14c-4.74,0-8.58,3.49-8.58,7.8a7.22,7.22,0,0,0,1.23,4,3.49,3.49,0,0,1,.47,2.81l-.3,1c-.43,1.56,4.26,2.6,4.65,1.28L9.08,20a1.11,1.11,0,0,1,1.2-.82,8.92,8.92,0,0,0,1.16.07,8.6,8.6,0,0,0,1-.05,1.12,1.12,0,0,1,1.22.82l.2.58c.43,1.35,5.14.18,4.63-1.33l-.27-.86a3.34,3.34,0,0,1,.47-2.8h0a2.31,2.31,0,0,1,1.89-1h.59c1.07,0,1.95-1.4,1.95-3.12S22.27,8.37,21.2,8.37Z"/><path class="cls-1" d="M5.78,17.35a8,8,0,0,1-1.69-1.84"/><path class="cls-1" d="M10.53,19.24a8.61,8.61,0,0,1-2-.49"/><path class="cls-1" d="M14.17,18.89a8.79,8.79,0,0,1-1.71.35"/><path class="cls-1" d="M18.71,15.65A6.28,6.28,0,0,1,17,17.42"/><path class="cls-1" d="M19.8,13.29a7.38,7.38,0,0,1-.93,2.11"/><path class="cls-1" d="M8.64,4a3.18,3.18,0,0,1-.07-.62,2.87,2.87,0,0,1,5.74,0,3.68,3.68,0,0,1-.05.58"/><line class="cls-1" x1="11.44" y1="8.37" x2="11.44" y2="14.52"/><line class="cls-1" x1="8.37" y1="11.44" x2="14.52" y2="11.44"/></g></g></svg>