<svg xmlns="http://www.w3.org/2000/svg" viewBox="0 0 10.88 12.8"><defs><style>.cls-1{fill:none;}.cls-2{fill:#fff;}.cls-3{fill:#212121;}</style></defs><title>pref_doctor</title><g id="Layer_2" data-name="Layer 2"><g id="Layer_1-2" data-name="Layer 1"><path class="cls-1" d="M1.76,7.81a1.7,1.7,0,0,0-1,1.57v2.71h9.46V9.38a1.7,1.7,0,0,0-.81-1.45,5.89,5.89,0,0,1-.4.93,1.49,1.49,0,0,1,.3,1,3.56,3.56,0,0,1-.43,1.6.33.33,0,0,1-.17.16l-.43.2a.35.35,0,0,1-.3-.64L8.25,11a2.78,2.78,0,0,0,.3-1.16c0-.29-.08-.5-.21-.56S7.45,9.48,7,10.33l.07.35a.37.37,0,0,1-.29.41.34.34,0,0,1-.41-.29l-.09-.47a.35.35,0,0,1,0-.22c.54-1,1.35-1.65,2-1.58a5.74,5.74,0,0,0,.36-.84H6.94L5.76,9.89a.36.36,0,0,1-.63,0L4,7.68H2.46A4.85,4.85,0,0,0,3,9.06h.17a1,1,0,0,1,0,2.09,1,1,0,0,1-1-1.05,1.07,1.07,0,0,1,.26-.69A5.09,5.09,0,0,1,1.76,7.81Z"/><path class="cls-2" d="M3.16,10.43a.34.34,0,0,0,0-.67.34.34,0,1,0,0,.67Z"/><path class="cls-3" d="M5.44,6.07a3,3,0,1,0-3-3A3,3,0,0,0,5.44,6.07Zm0-5.36A2.32,2.32,0,1,1,3.12,3,2.32,2.32,0,0,1,5.44.71Z"/><path class="cls-3" d="M8.46,7H6.72a.37.37,0,0,0-.32.19L5.44,9l-1-1.82A.35.35,0,0,0,4.16,7H2.42A2.43,2.43,0,0,0,0,9.38v3.07a.36.36,0,0,0,.36.35H10.53a.35.35,0,0,0,.35-.35V9.38A2.43,2.43,0,0,0,8.46,7Zm1.71,5.13H.71V9.38A1.71,1.71,0,0,1,1.76,7.81,5.27,5.27,0,0,0,2.37,9.4a1.06,1.06,0,0,0-.25.69,1,1,0,1,0,1-1H3a4.76,4.76,0,0,1-.53-1.38H4L5.13,9.89a.35.35,0,0,0,.62,0L6.93,7.68H8.69a5.78,5.78,0,0,1-.37.84c-.68-.07-1.49.54-2,1.58a.34.34,0,0,0,0,.22l.08.47a.35.35,0,0,0,.41.29A.36.36,0,0,0,7,10.68L7,10.33c.47-.85,1.11-1.2,1.36-1.07s.2.27.2.56A2.78,2.78,0,0,1,8.24,11l-.32.16a.36.36,0,1,0,.31.64l.43-.2a.31.31,0,0,0,.16-.16,3.56,3.56,0,0,0,.43-1.6,1.49,1.49,0,0,0-.3-1,5.86,5.86,0,0,0,.41-.93,1.72,1.72,0,0,1,.81,1.45v2.71Zm-7.35-2a.34.34,0,0,1,.34-.33.34.34,0,0,1,0,.67A.34.34,0,0,1,2.82,10.09Z"/></g></g></svg>