<svg xmlns="http://www.w3.org/2000/svg" viewBox="0 0 16.83 16.83"><defs><style>.cls-1{opacity:0.39;}.cls-2,.cls-3{fill:#e0e0e0;}.cls-2,.cls-4{stroke:#757575;stroke-width:0.83px;}.cls-2{stroke-miterlimit:10;}.cls-4{fill:none;stroke-linecap:round;stroke-linejoin:round;}</style></defs><title>Asset 48</title><g id="Layer_2" data-name="Layer 2"><g id="Layer_1-2" data-name="Layer 1"><g class="cls-1"><path class="cls-2" d="M13.54,14.56a4.91,4.91,0,0,0-2.88-2.3C9.7,11.94,10,11,10,10c1.28,1.26,1.6-.34,2.88.3-1.18-1.87-1-2.87-1.28-4.48A3.16,3.16,0,0,0,8.42,3a3.15,3.15,0,0,0-3.2,2.88C5,7.47,5.11,8.47,3.94,10.34c1.28-.64,1.6,1,2.88-.3,0,.94.32,1.9-.64,2.22a4.88,4.88,0,0,0-2.88,2.3"/><polyline class="cls-3" points="3.3 14.56 4.39 15.33 5.7 15.94 7.3 16.34 9.14 16.38 10.68 16.09 12.19 15.47 13.54 14.56"/><circle class="cls-4" cx="8.42" cy="8.42" r="8"/></g></g></g></svg>