<?xml version="1.0" encoding="utf-8"?>
<!-- Generator: Adobe Illustrator 22.1.0, SVG Export Plug-In . SVG Version: 6.00 Build 0)  -->
<svg version="1.1" id="Layer_1" xmlns="http://www.w3.org/2000/svg" xmlns:xlink="http://www.w3.org/1999/xlink" x="0px"
     y="0px"
     viewBox="0 0 9.6 13.5" style="enable-background:new 0 0 9.6 13.5;" xml:space="preserve">
<style type="text/css">
	.st0{fill:none;stroke:#D40057;stroke-width:0.5;stroke-linecap:round;stroke-linejoin:round;}
</style>
    <title>Asset 36</title>
    <g id="Layer_2_1_">
	<g id="Layer_1-2">
		<path style="fill:none;stroke:#D40057;stroke-width:0.5;stroke-linecap:round;stroke-linejoin:round;" d="M2.2,6.5c0-0.6,0.1-4,0.2-5.5c0-0.4,0.4-0.8,0.8-0.8l0,0C3.6,0.2,4,0.6,4,1c0,0,0,0,0,0v5.5 M5.8,4.3h0.6
			c0.6,0,1.1,0.5,1.1,1.1V7 M4,3.4h0.7c0.6,0,1.1,0.5,1.1,1.1v2.2"/>
        <path style="fill:none;stroke:#D40057;stroke-width:0.5;stroke-linecap:round;stroke-linejoin:round;" d="M7.5,5.2H8c0.6,0,1,0.4,1.1,1.1c0.2,1,0.3,2.1,0.2,3.1c0,0.8-0.3,1.6-0.7,2.2c0,0.9-0.7,1.6-1.5,1.6
			c0,0,0,0,0,0H4.2c-0.9,0-1.6-0.7-1.6-1.6v-0.3"/>
        <line style="fill:none;stroke:#D40057;stroke-width:0.5;stroke-linecap:round;stroke-linejoin:round;" x1="2.2"
              y1="6.5" x2="2.2" y2="7.2"/>
        <path style="fill:none;stroke:#D40057;stroke-width:0.5;stroke-linecap:round;stroke-linejoin:round;"
              d="M7.9,11.5h0.1c0.6,0,1-0.4,1.1-1"/>
        <path style="fill:none;stroke:#D40057;stroke-width:0.5;stroke-linecap:round;stroke-linejoin:round;"
              d="M2.8,11.5c-1-0.8-2.9-2.4-2.5-4.3c0.2-1.1,1.5-1.4,1.8-1.6"/>
	</g>
</g>
</svg>
