<svg xmlns="http://www.w3.org/2000/svg" viewBox="0 0 9.58 13.5">
    <defs>
<!--        <style>-->
<!--            .cls-1,.cls-2{fill:none;stroke:#000;stroke-linecap:round;stroke-linejoin:round;stroke-width:0.5px;}.cls-1{fill-rule:evenodd;}-->
<!--        </style>-->
    </defs>
    <title>Asset 36</title>
    <g id="Layer_2" data-name="Layer 2">
        <g id="Layer_1-2" data-name="Layer 1">
            <path style="fill-rule:evenodd;fill:none;stroke:#000;stroke-linecap:round;stroke-linejoin:round;stroke-width:0.5px;"
                  d="M2.15,6.53c0-.61.13-4,.22-5.53A.79.79,0,0,1,3.16.25h0A.79.79,0,0,1,4,1V6.53M5.78,4.28h.64A1.13,1.13,0,0,1,7.54,5.41V7M4,3.39h.66A1.12,1.12,0,0,1,5.74,4.51V6.75"/>
            <path style="fill-rule:evenodd;fill:none;stroke:#000;stroke-linecap:round;stroke-linejoin:round;stroke-width:0.5px;"
                  d="M7.54,5.18H8c.62,0,1,.45,1.12,1.12a15.37,15.37,0,0,1,.23,3.14,5,5,0,0,1-.68,2.24,1.56,1.56,0,0,1-1.56,1.57H4.17A1.57,1.57,0,0,1,2.6,11.68v-.31"/>
            <line style="fill:none;stroke:#000;stroke-linecap:round;stroke-linejoin:round;stroke-width:0.5px;" x1="2.15"
                  y1="6.53" x2="2.15" y2="7.2"/>
            <path style="fill:none;stroke:#000;stroke-linecap:round;stroke-linejoin:round;stroke-width:0.5px;"
                  d="M7.94,11.46h.13a1.13,1.13,0,0,0,1.1-1"/>
            <path style="fill-rule:evenodd;fill:none;stroke:#000;stroke-linecap:round;stroke-linejoin:round;stroke-width:0.5px;"
                  d="M2.77,11.46C1.73,10.67-.1,9.1.31,7.2.55,6.09,1.77,5.78,2.1,5.63"/>
        </g>
    </g>
</svg>