<svg xmlns="http://www.w3.org/2000/svg" viewBox="0 0 20.7 14.03"><defs><style>.cls-1{fill:none;stroke:#d40057;stroke-miterlimit:10;stroke-width:0.7px;}</style></defs><title>Asset 71</title><g id="Layer_2" data-name="Layer 2"><g id="Layer_1-2" data-name="Layer 1"><path class="cls-1" d="M2.63,8.68A4.44,4.44,0,0,1,.35,4.79h0A4.44,4.44,0,0,1,4.79.35h6.67a4.44,4.44,0,0,1,4.45,4.44h0a4.45,4.45,0,0,1-4.45,4.45H7"/><path class="cls-1" d="M18.07,5.35a4.45,4.45,0,0,1,2.28,3.89h0a4.44,4.44,0,0,1-4.44,4.44H9.24A4.44,4.44,0,0,1,4.79,9.24h0A4.45,4.45,0,0,1,9.24,4.79h4.44"/></g></g></svg>