<svg xmlns="http://www.w3.org/2000/svg" viewBox="0 0 12.95 12.94"><defs><style>.cls-1{fill:#212121;}</style></defs><title>search_queries</title><g id="Layer_2" data-name="Layer 2"><g id="Layer_1-2" data-name="Layer 1"><path class="cls-1" d="M11.25,4.07a1.69,1.69,0,0,0-.36,3.34v1.7a3.11,3.11,0,1,1-6.21,0V8.23A2.77,2.77,0,0,0,6.82,6.7l1.51-3a2.77,2.77,0,0,0-1-3.63.36.36,0,0,0-.37.62,2.06,2.06,0,0,1,.77,2.69L6.46,5.81H2.17L.94,3.36A2.06,2.06,0,0,1,1.71.67a.36.36,0,0,0,.12-.5A.36.36,0,0,0,1.34.05a2.77,2.77,0,0,0-1,3.63l1.51,3A2.78,2.78,0,0,0,4,8.22v.89a3.83,3.83,0,1,0,7.65,0V7.41a1.69,1.69,0,0,0-.36-3.34ZM2.54,6.53H6.09a2,2,0,0,1-1.77,1A2,2,0,0,1,2.54,6.53Zm8.71.2a1,1,0,0,1,0-1.95,1,1,0,1,1,0,2Z"/><path class="cls-1" d="M11.28,5.4h0a.36.36,0,0,0,0,.72h0a.36.36,0,1,0,0-.72Z"/></g></g></svg>