<svg xmlns="http://www.w3.org/2000/svg" viewBox="0 0 16 9.54">
    <defs>
<!--        <style>.cls-1{fill:#212121;}</style>-->
    </defs>
    <title>show_password</title>
    <g id="Layer_2" data-name="Layer 2">
        <g id="Layer_1-2" data-name="Layer 1">
            <path style="fill:#212121;"
                  d="M8,0A10,10,0,0,0,.13,4.39a.63.63,0,0,0,0,.76A10,10,0,0,0,8,9.54a10,10,0,0,0,7.87-4.39.63.63,0,0,0,0-.76A10,10,0,0,0,8,0Zm.22,8.13A3.37,3.37,0,1,1,11.36,5,3.38,3.38,0,0,1,8.22,8.13Zm-.1-1.55a1.81,1.81,0,1,1,1.69-1.7,1.82,1.82,0,0,1-1.69,1.7Z"/>
        </g>
    </g>
</svg>