<svg xmlns="http://www.w3.org/2000/svg" viewBox="0 0 17.08 16.32">
    <defs>
<!--        <style>.cls-1{fill:none;stroke:#212121;stroke-linecap:round;stroke-linejoin:round;}</style>-->
    </defs>
    <title>sidebar_favourite</title>
    <g id="Layer_2" data-name="Layer 2">
        <g id="Layer_1-2" data-name="Layer 1">
            <path style="fill:none;stroke:#212121;stroke-linecap:round;stroke-linejoin:round;"
                  d="M8.82.7l1.75,5.22a.32.32,0,0,0,.29.21h5.42a.29.29,0,0,1,.18.53L12.11,10a.3.3,0,0,0-.11.32l1.61,5.12a.29.29,0,0,1-.45.33L8.71,12.71a.3.3,0,0,0-.34,0L3.92,15.77a.3.3,0,0,1-.45-.33l1.61-5.12A.28.28,0,0,0,5,10L.62,6.66A.29.29,0,0,1,.8,6.13H6.22a.31.31,0,0,0,.29-.21L8.26.7A.29.29,0,0,1,8.82.7Z"/>
        </g>
    </g>
</svg>