<svg xmlns="http://www.w3.org/2000/svg" viewBox="0 0 17 20">
    <defs>
<!--        <style>.cls-1{fill:none;}.cls-2{fill:#212121;}</style>-->
    </defs>
    <title>sidebar_expert</title>
    <g id="Layer_2" data-name="Layer 2">
        <g id="Layer_1-2" data-name="Layer 1">
            <path style="fill:none;"
                  d="M2.75,12.19a2.69,2.69,0,0,0-1.64,2.46v4.24H15.89V14.65a2.66,2.66,0,0,0-1.27-2.26A9.11,9.11,0,0,1,14,13.84a2.25,2.25,0,0,1,.47,1.5,5.68,5.68,0,0,1-.67,2.5.49.49,0,0,1-.26.25l-.67.31a.56.56,0,0,1-.74-.26.57.57,0,0,1,.27-.75l.5-.23a4.4,4.4,0,0,0,.46-1.82c0-.45-.12-.78-.32-.88-.39-.2-1.39.36-2.12,1.67l.09.55a.54.54,0,0,1-.44.64.55.55,0,0,1-.65-.45l-.13-.73a.54.54,0,0,1,.06-.35c.84-1.62,2.11-2.58,3.17-2.47a9,9,0,0,0,.57-1.3l-.36,0H10.84L9,15.45a.55.55,0,0,1-1,0L6.18,12H3.85a7.38,7.38,0,0,0,.84,2.16l.26,0a1.64,1.64,0,1,1-1.64,1.63,1.66,1.66,0,0,1,.41-1.07A8.32,8.32,0,0,1,2.75,12.19Z"/>
            <path style="fill:none;" d="M4.93,16.29a.53.53,0,1,0-.52-.53A.53.53,0,0,0,4.93,16.29Z"/>
            <path style="fill:none;" d="M8.5,1.11a3.63,3.63,0,1,0,3.62,3.63A3.64,3.64,0,0,0,8.5,1.11Z"/>
            <path style="fill:none;" d="M8.5,7.25A2.52,2.52,0,1,1,11,4.74,2.52,2.52,0,0,1,8.5,7.25Z"/>
            <path style="fill:#212121;"
                  d="M8.5,9.48A4.74,4.74,0,1,0,3.76,4.74,4.74,4.74,0,0,0,8.5,9.48Zm0-8.37A3.63,3.63,0,1,1,4.87,4.74,3.63,3.63,0,0,1,8.5,1.11Z"/>
            <path style="fill:#212121;"
                  d="M13.21,10.87H10.49a.57.57,0,0,0-.49.3L8.5,14,7,11.17a.55.55,0,0,0-.49-.3H3.78A3.79,3.79,0,0,0,0,14.65v4.79A.56.56,0,0,0,.56,20H16.44a.56.56,0,0,0,.56-.56V14.65A3.8,3.8,0,0,0,13.21,10.87Zm2.67,8H1.11V14.65a2.69,2.69,0,0,1,1.64-2.46,8.62,8.62,0,0,0,1,2.5,1.63,1.63,0,1,0,1.23-.56l-.26,0A7.38,7.38,0,0,1,3.84,12H6.17L8,15.45a.55.55,0,0,0,1,0L10.83,12h2.38l.36,0a9,9,0,0,1-.57,1.3c-1.06-.11-2.33.85-3.17,2.47a.54.54,0,0,0-.06.35l.13.73a.55.55,0,0,0,.65.45.54.54,0,0,0,.44-.64l-.09-.55c.74-1.31,1.73-1.87,2.12-1.67.2.1.32.43.32.88a4.4,4.4,0,0,1-.46,1.82l-.5.23a.56.56,0,1,0,.47,1l.67-.31a.57.57,0,0,0,.26-.25,5.68,5.68,0,0,0,.67-2.5,2.3,2.3,0,0,0-.47-1.5,8.28,8.28,0,0,0,.63-1.45,2.66,2.66,0,0,1,1.27,2.26v4.24ZM4.41,15.76a.53.53,0,1,1,.52.53A.53.53,0,0,1,4.41,15.76Z"/>
        </g>
    </g>
</svg>