<svg xmlns="http://www.w3.org/2000/svg" viewBox="0 0 16.48 15.01">
    <defs>
<!--        <style>.cls-1{fill:#212121;stroke:#212121;stroke-linecap:round;stroke-linejoin:round;stroke-width:0.48px;}-->
<!--        </style>-->
    </defs>
    <title>sidebar_about</title>
    <g id="Layer_2" data-name="Layer 2">
        <g id="Layer_1-2" data-name="Layer 1">
            <path style="fill:#212121;stroke:#212121;stroke-linecap:round;stroke-linejoin:round;stroke-width:0.48px;"
                  d="M8.24,14.76A.48.48,0,0,1,8,14.7H8C7.19,14.16.24,9.35.24,4.52A4.28,4.28,0,0,1,7.87,1.86l.38.47.37-.47a4.27,4.27,0,0,1,7.62,2.65c0,5.09-7.68,10.14-7.76,10.19a.45.45,0,0,1-.24.06ZM4.52,1.12a3.4,3.4,0,0,0-3.4,3.39c0,4.15,6.16,8.61,6.86,9.1l.28.2.27-.2c.7-.5,6.85-5,6.85-9.1a3.4,3.4,0,0,0-6.7-.79.46.46,0,0,1-.45.34.46.46,0,0,1-.41-.36A3.37,3.37,0,0,0,4.52,1.12Z"/>
        </g>
    </g>
</svg>