<svg xmlns="http://www.w3.org/2000/svg" viewBox="0 0 17.98 17.97">
    <defs>
<!--        <style>.cls-1{fill:#212121;}</style>-->
    </defs>
    <title>sidebar_query</title>
    <g id="Layer_2" data-name="Layer 2">
        <g id="Layer_1-2" data-name="Layer 1">
            <path style="fill:#212121;"
                  d="M15.63,5.65a2.35,2.35,0,0,0-.5,4.65v2.36a4.32,4.32,0,0,1-8.63,0V11.43a3.85,3.85,0,0,0,3-2.12l2.1-4.19a3.86,3.86,0,0,0-1.45-5,.49.49,0,0,0-.68.17.49.49,0,0,0,.16.69,2.84,2.84,0,0,1,1.07,3.74L9,8.08H3L1.31,4.67A2.86,2.86,0,0,1,2.38.93.51.51,0,0,0,2.55.24.52.52,0,0,0,1.86.07a3.85,3.85,0,0,0-1.44,5l2.1,4.2a3.88,3.88,0,0,0,3,2.12v1.23a5.33,5.33,0,0,0,10.65,0V10.3a2.35,2.35,0,0,0-.51-4.65ZM3.53,9.07H8.46A2.81,2.81,0,0,1,6,10.46,2.82,2.82,0,0,1,3.53,9.07Zm12.1.28A1.36,1.36,0,1,1,17,8,1.35,1.35,0,0,1,15.63,9.35Z"/>
            <path style="fill:#212121;" d="M16.17,8a.5.5,0,0,0-.5-.5h-.06a.5.5,0,0,0,0,1"/>
        </g>
    </g>
</svg>