<svg xmlns="http://www.w3.org/2000/svg" viewBox="0 0 14.86 14.21"><defs><style>.cls-1{fill:none;stroke:#212121;stroke-linecap:round;stroke-linejoin:round;stroke-width:0.95px;}</style></defs><title>star_blk</title><g id="Layer_2" data-name="Layer 2"><g id="Layer_1-2" data-name="Layer 1"><path class="cls-1" d="M7.68.65,9.19,5.17a.27.27,0,0,0,.25.17h4.69a.26.26,0,0,1,.16.46L10.52,8.69a.26.26,0,0,0-.09.28l1.39,4.43a.26.26,0,0,1-.39.29L7.58,11a.26.26,0,0,0-.29,0L3.44,13.69a.26.26,0,0,1-.39-.29L4.44,9a.27.27,0,0,0-.09-.28L.58,5.8a.26.26,0,0,1,.15-.46h4.7a.25.25,0,0,0,.24-.17L7.19.65A.26.26,0,0,1,7.68.65Z"/></g></g></svg>