<svg xmlns="http://www.w3.org/2000/svg" viewBox="0 0 14 13.99"><defs><style>.cls-1{fill:#c2185b;}</style></defs><title>Asset 19</title><g id="Layer_2" data-name="Layer 2"><g id="Layer_1-2" data-name="Layer 1"><path class="cls-1" d="M12.17,4.4A1.83,1.83,0,0,0,11.78,8V9.85a3.36,3.36,0,1,1-6.72,0V8.9A3,3,0,0,0,7.38,7.25L9,4A3,3,0,0,0,7.89.06a.39.39,0,0,0-.54.13.39.39,0,0,0,.13.53,2.23,2.23,0,0,1,.84,2.91L7,6.29H2.35L1,3.63A2.23,2.23,0,0,1,1.85.72.38.38,0,0,0,2,.19.38.38,0,0,0,1.45.06,3,3,0,0,0,.32,4L2,7.24A3,3,0,0,0,4.28,8.9v.95a4.14,4.14,0,0,0,8.28,0V8a1.83,1.83,0,0,0-.39-3.62ZM2.75,7.06H6.59a2.24,2.24,0,0,1-3.84,0Zm9.42.22a1.06,1.06,0,1,1,1.05-1A1,1,0,0,1,12.17,7.28Z"/><path class="cls-1" d="M12.19,5.84h0a.38.38,0,0,0-.39.39.39.39,0,0,0,.39.39h0a.39.39,0,0,0,.39-.39A.38.38,0,0,0,12.19,5.84Z"/></g></g></svg>