<svg xmlns="http://www.w3.org/2000/svg" viewBox="0 0 20.92 20.91">
    <defs>
<!--        <style>.cls-1{fill:#fff;}</style>-->
    </defs>
    <title>stethoscope_white</title>
    <g id="Layer_2" data-name="Layer 2">
        <g id="Layer_1-2" data-name="Layer 1">
            <path style="fill:#fff;"
                  d="M18.18,6.57A2.73,2.73,0,0,0,17.6,12v2.75a5,5,0,1,1-10,0V13.29A4.51,4.51,0,0,0,11,10.83L13.47,6A4.49,4.49,0,0,0,11.79.09a.57.57,0,0,0-.8.19.58.58,0,0,0,.19.8,3.33,3.33,0,0,1,1.25,4.35l-2,4H3.5l-2-4A3.33,3.33,0,0,1,2.77,1.08a.58.58,0,1,0-.61-1A4.48,4.48,0,0,0,.48,6l2.45,4.87a4.49,4.49,0,0,0,3.46,2.47v1.43a6.19,6.19,0,0,0,12.38,0V12a2.74,2.74,0,0,0-.59-5.41Zm-14.07,4H9.84A3.28,3.28,0,0,1,7,12.17,3.28,3.28,0,0,1,4.11,10.55Zm14.07.33A1.58,1.58,0,1,1,19.76,9.3,1.58,1.58,0,0,1,18.18,10.88Z"/>
            <path style="fill:#fff;"
                  d="M18.22,8.72h-.07a.58.58,0,0,0-.58.58.59.59,0,0,0,.58.59h.07a.59.59,0,0,0,0-1.17Z"/>
        </g>
    </g>
</svg>