<svg xmlns="http://www.w3.org/2000/svg" viewBox="0 0 12.02 12.01"><defs><style>.cls-1{fill:#212121;}</style></defs><title>Asset 4</title><g id="Layer_2" data-name="Layer 2"><g id="Layer_1-2" data-name="Layer 1"><path class="cls-1" d="M10.44,3.77a1.57,1.57,0,0,0-.33,3.11V8.46a2.89,2.89,0,0,1-5.77,0V7.64a2.58,2.58,0,0,0,2-1.42l1.41-2.8a2.58,2.58,0,0,0-1-3.37.33.33,0,0,0-.46.11.33.33,0,0,0,.11.46,1.91,1.91,0,0,1,.72,2.5L6,5.4H2L.88,3.12A1.91,1.91,0,0,1,1.59.62.33.33,0,0,0,1.7.16.33.33,0,0,0,1.24.05a2.58,2.58,0,0,0-1,3.37l1.4,2.8a2.57,2.57,0,0,0,2,1.41v.83a3.56,3.56,0,0,0,7.11,0V6.88A1.57,1.57,0,0,0,12,5.35,1.58,1.58,0,0,0,10.44,3.77ZM2.36,6.06H5.65A1.87,1.87,0,0,1,4,7,1.88,1.88,0,0,1,2.36,6.06Zm8.08.19a.91.91,0,0,1-.9-.91.91.91,0,0,1,1.81,0A.91.91,0,0,1,10.44,6.25Z"/></g></g></svg>