<svg xmlns="http://www.w3.org/2000/svg" viewBox="0 0 39 12">
    <defs>
        <!--        <style>.cls-1{fill:#293688;}</style>-->
    </defs>
    <title>visa</title>
    <g id="Layer_2" data-name="Layer 2">
        <g id="Layer_1-2" data-name="Layer 1">
            <path style="fill:#293688;" d="M14,11.81l2-11.62h3.19l-2,11.62Z"/>
            <path style="fill:#293688;"
                  d="M28.5.49A8.14,8.14,0,0,0,25.65,0c-3.15,0-5.37,1.58-5.39,3.84,0,1.67,1.58,2.6,2.79,3.15s1.66.94,1.65,1.45c0,.78-1,1.13-1.9,1.13a6.6,6.6,0,0,1-3-.61l-.41-.18-.45,2.6a10.12,10.12,0,0,0,3.55.62C25.84,12,28,10.44,28,8c0-1.32-.84-2.33-2.68-3.16-1.11-.54-1.79-.9-1.79-1.44s.58-1,1.83-1a6,6,0,0,1,2.39.44l.28.14Z"/>
            <path style="fill:#293688;"
                  d="M33.94.19a1.57,1.57,0,0,0-1.65,1L27.56,11.81h3.38L31.59,10h4L36,11.81h3L36.38.19ZM32.49,7.71l1.27-3.25s.26-.68.42-1.11l.22,1,.74,3.36Z"/>
            <path style="fill:#293688;"
                  d="M8.16,8.16l-.28-1.6A9.12,9.12,0,0,0,3.47,1.69L6.28,11.81H9.66L14.72.19H11.34Z"/>
            <path style="fill:#293688;" d="M0,.19V.37c4,1,6.78,3.4,7.88,6.19L6.72,1.18a1.36,1.36,0,0,0-1.47-1Z"/>
        </g>
    </g>
</svg>