<svg xmlns="http://www.w3.org/2000/svg" viewBox="0 0 16.68 16.68">
    <defs>
<!--        <style>.cls-1{fill:#ededed;}.cls-2{fill:#55cd6c;}.cls-3{fill:#fefefe;}</style>-->
    </defs>
    <title>whatsapp</title>
    <g id="Layer_2" data-name="Layer 2">
        <g id="Layer_1-2" data-name="Layer 1">
            <path style="fill:#ededed;"
                  d="M0,16.68l1.15-4.17A8.3,8.3,0,0,1,8.31,0a8.38,8.38,0,0,1,8.37,8.28,8.48,8.48,0,0,1-8.37,8.4,8.33,8.33,0,0,1-4.05-1.15Z"/>
            <path style="fill:#55cd6c;"
                  d="M4.49,14l.26.15a6.82,6.82,0,0,0,3.59,1.06,7,7,0,0,0,6.9-7A6.9,6.9,0,1,0,2.5,12l.17.26L2,14.67Z"/>
            <path style="fill:#fefefe;"
                  d="M6.1,4.43l-.55,0a.69.69,0,0,0-.46.17,2.33,2.33,0,0,0-.8,1.24,3.69,3.69,0,0,0,.86,2.93,8.69,8.69,0,0,0,4.71,3.43,2.37,2.37,0,0,0,2-.23,1.74,1.74,0,0,0,.75-1.1l.08-.4a.28.28,0,0,0-.14-.32L10.7,9.29a.27.27,0,0,0-.35.09l-.72.92a.23.23,0,0,1-.23,0,5.63,5.63,0,0,1-3-2.58.25.25,0,0,1,0-.23l.69-.78a.35.35,0,0,0,.06-.29L6.33,4.6a.26.26,0,0,0-.23-.17"/>
        </g>
    </g>
</svg>