<svg xmlns="http://www.w3.org/2000/svg" viewBox="0 0 26.76 31.63"><defs><style>.cls-1{fill:none;}.cls-1,.cls-2{stroke:#d40057;stroke-miterlimit:10;stroke-width:0.75px;}.cls-2{fill:#f8bbd0;}</style></defs><title>Asset 5</title><g id="Layer_2" data-name="Layer 2"><g id="Layer_1-2" data-name="Layer 1"><ellipse class="cls-1" cx="13.38" cy="15.82" rx="13" ry="15.44"/><path class="cls-2" d="M15,18.47s2.47-2.19,4-.75c.88,1,.3,1.18,1.26,2.06s4.33,3.37.31,6.74-7.74-.77-7.79-3.23c0,0-3.43.54-7-4.38S2.38,11,5.08,9.18a5.85,5.85,0,0,1,5.58-.34,3.25,3.25,0,0,1-.84-1.47c-.06-.68-.07-.91-.07-.91-.86-.84.45-1.82,1.11-1.42s1.59-.73,2.17-.21c.08-.21.47,0,.21.41a1.67,1.67,0,0,1-.71.55,1.23,1.23,0,0,1-.71.75c.81.68,2.55,3.52,2,4.48a2.21,2.21,0,0,1-2.47,1.05,4.2,4.2,0,0,1,1.06,2c0,.87,0,.72,0,.72a3.35,3.35,0,0,1,1.14-1,11.13,11.13,0,0,1,3.07.09s1.32-.23,1.85.21c0,0,.13.1.11.22.37.13.29.41.28.45.19.16.12.33.05.47.23.1.09.46-.08.44a.6.6,0,0,1,.1.37c0,.16-.43.18-.72.29a1.29,1.29,0,0,1-1-.28c-.6-.16-1.64.47-2.39-.08A2.08,2.08,0,0,1,15,18.48Z"/></g></g></svg>