<svg xmlns="http://www.w3.org/2000/svg" viewBox="0 0 25.74 11.58"><defs><style>.cls-1{fill:#fff;}.cls-2{fill:#f8bbd0;}.cls-3{fill:#d40057;}</style></defs><title>Asset 7</title><g id="Layer_2" data-name="Layer 2"><g id="Layer_1-2" data-name="Layer 1"><path class="cls-1" d="M2.06,3.81a.63.63,0,0,0-.63.63V7.13a.64.64,0,0,0,1.27,0V4.44A.64.64,0,0,0,2.06,3.81Z"/><path class="cls-2" d="M2,3.68c-.35,0-.64.13-.64.3V7.47c0,.17.29.3.64.3s.63-.13.63-.3V4C2.67,3.81,2.38,3.68,2,3.68Z"/><path class="cls-1" d="M23.66,3.81a.63.63,0,0,0-.63.63V7.13a.63.63,0,0,0,1.26,0V4.44A.62.62,0,0,0,23.66,3.81Z"/><path class="cls-2" d="M23.69,3.68c-.35,0-.63.13-.63.3V7.47c0,.17.28.3.63.3s.63-.13.63-.3V4C24.33,3.81,24,3.68,23.69,3.68Z"/><rect class="cls-2" x="6.82" y="5.15" width="12.07" height="1.27"/><path class="cls-3" d="M23.66,2.38a1.85,1.85,0,0,0-.63.1V2.07a2.07,2.07,0,0,0-4.14,0V3.73H6.82V2.07a2.07,2.07,0,1,0-4.13,0v.41a1.89,1.89,0,0,0-.63-.1A2.07,2.07,0,0,0,0,4.45V7.14A2.07,2.07,0,0,0,2.07,9.2a1.89,1.89,0,0,0,.63-.1v.41a2.07,2.07,0,0,0,4.14,0V7.86H18.91V9.51a2.07,2.07,0,1,0,4.13,0V9.1a2,2,0,0,0,.63.1,2.07,2.07,0,0,0,2.07-2.06V4.45A2.08,2.08,0,0,0,23.66,2.38Zm.64,4.75a.63.63,0,1,1-1.26,0V4.44a.63.63,0,0,1,1.26,0ZM21.6,9.5a.63.63,0,1,1-1.26,0V2.07a.63.63,0,0,1,1.26,0ZM18.9,6.42H6.82V5.14H18.89V6.42ZM5.39,9.5a.63.63,0,0,1-.63.63.63.63,0,0,1-.63-.63V2.07a.63.63,0,0,1,.63-.63.63.63,0,0,1,.63.63ZM2.7,7.13a.64.64,0,0,1-1.27,0V4.44a.64.64,0,0,1,1.27,0Z"/></g></g></svg>