<svg xmlns="http://www.w3.org/2000/svg" viewBox="0 0 25 25.01"><defs><style>.cls-1{fill:#f8bbd0;}.cls-2{fill:#d40057;}.cls-3{fill:none;}</style></defs><title>Asset 8</title><g id="Layer_2" data-name="Layer 2"><g id="Layer_1-2" data-name="Layer 1"><path class="cls-1" d="M17.53,3.59a2.21,2.21,0,0,0-4.35-.51.69.69,0,0,1-1.35,0,2.21,2.21,0,0,0-4.36.51c0,2.5,3.34,5.39,5,6.59C14.2,9,17.53,6.1,17.53,3.59Z"/><path class="cls-2" d="M15.33,0a3.57,3.57,0,0,0-2.82,1.36A3.6,3.6,0,0,0,6.09,3.59c0,4,5.79,7.85,6,8a.72.72,0,0,0,.76,0c.25-.16,6-4,6-8A3.58,3.58,0,0,0,15.33,0ZM7.48,3.59a2.21,2.21,0,0,1,2.21-2.2,2.18,2.18,0,0,1,2.14,1.69.7.7,0,0,0,1.36,0,2.21,2.21,0,0,1,4.35.51c0,2.5-3.33,5.39-5,6.59C10.81,9,7.48,6.1,7.48,3.59Z"/><path class="cls-3" d="M23.44,17.21a.63.63,0,0,0,.18-.45V8.13a1.16,1.16,0,0,0-2.31,0v3.39A2.45,2.45,0,0,1,22,13.21v2.84a.7.7,0,0,1-1.4,0V13.21a1.08,1.08,0,1,0-2.16,0V16a.74.74,0,0,1-.18.47l-2.47,2.71a2.67,2.67,0,0,0-.7,1.8v2a.66.66,0,0,0,.65.66h3.12a.67.67,0,0,0,.66-.66v-.82a2,2,0,0,1,.56-1.41Z"/><path class="cls-2" d="M22.47,5.59a2.54,2.54,0,0,0-2.54,2.54v2.63l-.42,0A2.47,2.47,0,0,0,17,13.2v2.49l-2.29,2.52A4.07,4.07,0,0,0,13.69,21v2a2,2,0,0,0,2,2h3.12a2,2,0,0,0,2-2v-.82a.64.64,0,0,1,.19-.45l3.36-3.53A2,2,0,0,0,25,16.75V8.13A2.53,2.53,0,0,0,22.47,5.59ZM19.51,23a.66.66,0,0,1-.65.66H15.74a.67.67,0,0,1-.66-.66V21a2.66,2.66,0,0,1,.7-1.8l2.47-2.72a.65.65,0,0,0,.18-.46V13.2a1.08,1.08,0,1,1,2.16,0v2.85a.7.7,0,0,0,1.4,0V13.2a2.47,2.47,0,0,0-.68-1.69V8.14a1.16,1.16,0,1,1,2.31,0v8.62a.67.67,0,0,1-.18.45l-3.37,3.53a2,2,0,0,0-.56,1.41V23Z"/><path class="cls-2" d="M10.26,18.21,8,15.7V13.21a2.47,2.47,0,0,0-2.47-2.47,1.93,1.93,0,0,0-.42,0V8.14A2.55,2.55,0,0,0,0,8.13v8.63a2.06,2.06,0,0,0,.56,1.41l3.36,3.52a.66.66,0,0,1,.19.46V23a2,2,0,0,0,2,2H9.27a2,2,0,0,0,2-2V21A4,4,0,0,0,10.26,18.21ZM9.93,23a.67.67,0,0,1-.66.66H6.16A.67.67,0,0,1,5.5,23v-.82a2,2,0,0,0-.56-1.41L1.58,17.2a.63.63,0,0,1-.18-.45V8.13a1.15,1.15,0,0,1,2.3,0v3.39A2.49,2.49,0,0,0,3,13.21v2.84a.7.7,0,0,0,.7.7.69.69,0,0,0,.69-.7V13.21a1.09,1.09,0,1,1,2.17,0V16a.69.69,0,0,0,.18.47l2.47,2.71A2.67,2.67,0,0,1,9.93,21v2Z"/></g></g></svg>