<svg xmlns="http://www.w3.org/2000/svg" viewBox="0 0 23.43 22.27"><defs><style>.cls-1,.cls-2{fill:#f8bbd0;}.cls-1,.cls-3{stroke:#d40057;stroke-miterlimit:10;}.cls-3{fill:none;}</style></defs><title>Asset 4</title><g id="Layer_2" data-name="Layer 2"><g id="Layer_1-2" data-name="Layer 1"><path class="cls-1" d="M2.31,13.87H2.16a1.66,1.66,0,0,1,0-3.32H2.3"/><path class="cls-1" d="M21.13,13.87h.14a1.66,1.66,0,1,0,0-3.32h-.14"/><circle class="cls-2" cx="11.7" cy="12.33" r="9.88"/><path class="cls-1" d="M2.3,10.56a9.56,9.56,0,0,1,18.82,0"/><path class="cls-3" d="M15.45,1.09A2.1,2.1,0,0,0,14,.5a2.15,2.15,0,0,0-2.15,2.15"/><path class="cls-3" d="M9,1.43a1.67,1.67,0,0,1,2.81,1.22"/><path class="cls-1" d="M21.12,13.91a9.55,9.55,0,0,1-18.81,0"/><path class="cls-1" d="M8,15.24a4,4,0,0,0,7.51,0"/><path class="cls-1" d="M8.81,11a1.67,1.67,0,0,0-3.33,0"/><path class="cls-1" d="M18,11a1.67,1.67,0,0,0-3.33,0"/></g></g></svg>