<svg xmlns="http://www.w3.org/2000/svg" viewBox="0 0 26.06 26.07"><defs><style>.cls-1{fill:#f8bbd0;}.cls-2{fill:#d40057;}</style></defs><title>Asset 6</title><g id="Layer_2" data-name="Layer 2"><g id="Layer_1-2" data-name="Layer 1"><path class="cls-1" d="M3.68,2a3.78,3.78,0,0,0-.79,2.31,4,4,0,0,0,8,0"/><path class="cls-1" d="M15.21,4.34a4,4,0,0,0,8,0A3.83,3.83,0,0,0,22.4,2"/><path class="cls-1" d="M19.47,11.14A6.88,6.88,0,0,1,13,7.37,6.84,6.84,0,0,1,6.6,11.14c.28,1,.61,2.43.89,4l.22,1.45c.07.47.13,1,.18,1.45L8,19.48a25.35,25.35,0,0,1-.07,3.7H18.13A35.87,35.87,0,0,1,19.47,11.14Z"/><path class="cls-2" d="M5.71,5.82H6.1a.73.73,0,0,0,0-1.46H5.71a.73.73,0,0,0,0,1.46Z"/><path class="cls-2" d="M20,5.82h.39a.73.73,0,1,0,0-1.46H20a.73.73,0,1,0,0,1.46Z"/><path class="cls-2" d="M13.23,19.53h-.39a.73.73,0,1,0,0,1.46h.39a.73.73,0,0,0,0-1.46Z"/><path class="cls-2" d="M24.71.29a.72.72,0,0,0-1-.14.71.71,0,0,0-.14,1,5.25,5.25,0,0,1,1.07,3.18,5.43,5.43,0,0,1-10.86,0,.73.73,0,0,0-1.46,0,5.43,5.43,0,0,1-10.85,0A5.25,5.25,0,0,1,2.52,1.16a.72.72,0,0,0-.14-1,.74.74,0,0,0-1,.14A6.68,6.68,0,0,0,0,4.34a6.78,6.78,0,0,0,3.29,5.8c.34,1,3,9.54,1.34,15a.72.72,0,0,0,.48.9.73.73,0,0,0,.9-.48c1.25-5.08.45-9.7-1-14.66a7.06,7.06,0,0,0,1.85.25A6.88,6.88,0,0,0,13,7.37a6.92,6.92,0,0,0,6.16,3.78A6.55,6.55,0,0,0,21,10.89c-.82,2.87-2.46,9.73-1,14.66A.7.7,0,0,0,21,26a.73.73,0,0,0,.48-.91c-1.64-5.45,1-13.95,1.33-15a6.77,6.77,0,0,0,3.29-5.8A6.6,6.6,0,0,0,24.71.29Z"/></g></g></svg>